<svg width="1340" height="296" viewBox="0 0 1340 296" fill="none" xmlns="http://www.w3.org/2000/svg">
<path d="M467.998 2.64759L517.345 2.51758C523.732 3.08759 522.262 10.4078 522.102 15.2479C521.523 32.7982 519.514 50.4085 519.064 67.9888C517.425 132.66 516.465 201.221 520.093 265.692C520.503 272.923 522.692 283.293 522.102 290.113C521.882 292.713 521.103 294.683 518.304 295.293H465.909C461.101 294.543 462.031 285.753 462.111 282.103C462.531 264.042 464.18 245.942 464.61 227.832C466.279 157.24 465.679 86.2591 464.65 15.7078C464.58 11.0877 462.261 5.18764 467.998 2.6576V2.64759Z" fill="#F0EEE9"/>
<path d="M886.279 6.00781C886.299 5.83781 886.239 5.64781 886.279 5.50781L886.769 5.75781L886.279 6.00781Z" fill="#F0EEE9"/>
<path d="M1164.04 0.537583C1170.66 2.58762 1178.05 3.06763 1184.62 5.16767C1188.2 6.30769 1190.24 7.15771 1190.53 11.2278C1191.48 24.378 1190 37.9783 1189.99 51.0985C1189.99 56.1086 1192.61 66.5588 1187.68 69.6588C1186.86 70.1689 1185.8 70.7889 1184.8 70.7389C1183.06 70.6389 1177.27 67.6788 1175.02 67.0088C1157.53 61.7487 1131.02 56.3586 1125.09 79.489C1118 107.1 1153.01 124.75 1168.78 140.95C1199.82 172.851 1208.73 246.482 1174.02 278.143C1166.38 285.123 1148.61 294.623 1138.32 295.333C1121.41 296.513 1103.03 294.503 1085.96 295.193C1075.97 291.163 1060.23 288.573 1059.13 275.633C1057.43 255.542 1061.19 233.242 1059.6 212.881C1060.8 210.071 1058.56 201.701 1062.96 201.841C1064.84 201.901 1072.22 209.411 1074.45 211.071C1085.1 218.972 1102.64 227.012 1115.96 223.252C1139.33 216.662 1139.3 190.021 1127.97 172.651C1108.64 143 1074.04 136.55 1063.14 98.8494C1056.13 74.5989 1060.05 36.9583 1079.5 18.9979C1088.71 10.4778 1105.6 2.02761 1118.06 0.537583C1132.16 -1.15245 1149.56 1.79761 1164.02 0.537583H1164.04Z" fill="#F0EEE9"/>
<path d="M1305.92 0.537748C1315.76 1.41776 1337.23 7.7579 1338.41 19.6781C1337.6 33.8384 1339.4 49.0086 1338.41 63.0489C1338.18 66.269 1337.44 72.309 1333.15 72.269C1332.22 72.269 1327.64 70.6291 1326.29 70.1891C1317.9 67.469 1306.42 64.6389 1296.18 65.2689C1261.16 67.419 1263.49 106.88 1292.17 109.1C1299.37 109.66 1307.47 107.32 1314.65 107.07C1315.88 107.03 1319.49 107.03 1320.18 108.07C1321.21 109.62 1319.94 117.07 1319.89 119.27C1319.6 131.49 1320.12 144.57 1319.43 156.661C1319.33 158.421 1318.96 163.671 1317.89 164.591C1317.38 165.031 1316.78 165.221 1316.14 165.321C1311.71 166.021 1304.77 164.521 1299.66 164.831C1279.74 166.031 1266.18 175.781 1266.94 196.991C1267.22 204.801 1269.41 210.382 1275.44 215.402C1288.25 226.032 1304.43 221.632 1317.92 214.912C1321.59 213.082 1330.87 206.452 1333.76 205.792C1335.81 205.322 1338.93 205.221 1339.67 207.652C1339.99 216.692 1340.01 225.782 1339.92 234.842C1339.8 246.812 1340.41 262.113 1339.41 273.673C1339.08 277.513 1337.95 280.273 1335.14 282.853C1315.38 300.873 1289.16 294.103 1264.75 295.273C1224.37 283.433 1207.52 253.792 1209.49 212.882C1210.54 191.141 1216.3 164.341 1232.73 148.93C1234.81 146.99 1246.67 138.81 1246.9 137.64C1247.3 135.54 1236.1 125.27 1234.23 123.03C1212.63 97.1395 1212.49 65.379 1227.25 35.8784C1237.99 14.388 1259.37 2.54778 1282.95 0.527739C1288.91 0.0177292 1299.99 -0.00227118 1305.93 0.527739L1305.92 0.537748Z" fill="#F0EEE9"/>
<path d="M172.248 197.601C167.94 173.231 147.4 154.58 127.28 142.29C124.661 140.69 116.295 140.16 121.682 135.49C124.301 133.22 129.519 130.74 132.857 128.2C165.372 103.48 168.48 64.7788 147.98 30.5682C138.754 15.1679 117.854 2.13762 99.9328 0.527589C92.6063 -0.132424 84.3802 1.0176 76.9537 0.527589C73.2355 1.60761 69.3074 1.78766 65.5891 2.88768C58.7224 4.90772 51.4958 10.3878 47.5677 16.2979C46.848 17.3879 45.1589 22.268 43.7395 21.938C43.3397 21.838 39.9014 16.2679 39.0018 15.2079C32.235 7.2277 25.868 3.65769 15.7228 1.56765C14.2135 1.25764 12.1445 2.11762 11.0151 0.527589H2.51912C0.969857 1.62761 -0.0196932 3.28766 0.000297321 5.2377L0.160256 291.953C1.09981 294.523 3.72854 295.113 6.25734 295.333C36.5929 293.693 69.1375 297.453 99.2232 295.333C113.436 294.333 132.647 286.473 144.582 278.793C171.379 261.542 177.506 227.212 172.268 197.591L172.248 197.601ZM55.4539 88.3992C56.0637 68.7988 57.1131 36.8282 85.5396 41.5183C86.889 41.7383 96.6444 44.1084 97.2841 44.4984C107.319 50.7185 112.007 60.9987 111.427 73.4689C110.088 102.419 84.2603 118.9 57.5929 121.92C55.8838 122.11 55.6638 122.01 55.4539 120.3C54.4344 112 55.1841 97.1994 55.4539 88.3893V88.3992ZM115.915 213.401C113.726 240.202 79.0427 251.112 56.2036 248.042C53.9746 247.742 53.6448 246.332 53.4549 244.302C51.9356 227.692 53.7148 207.131 53.4949 189.981C53.405 182.431 53.1051 174.701 52.9951 167.081C52.9652 164.861 51.3059 160.77 54.8342 159.99C56.7233 159.57 62.1008 159.71 64.2098 159.891C71.5663 160.521 82.721 164.001 89.5377 167.011C109.538 175.831 117.684 191.741 115.915 213.401Z" fill="#F0EEE9"/>
<path d="M629.491 209.181C632.05 210.051 632.29 206.411 632.84 204.301C636.668 189.561 639.586 174.181 642.755 159.41C651.431 118.95 658.667 78.929 664.894 38.0782C665.964 31.0681 666.364 23.8479 667.593 16.8578C668.873 9.52768 669.182 4.16756 677.698 2.52753L729.384 2.79756C735.691 6.05762 732.153 11.4977 731.053 16.3678C713.731 93.0092 694.42 169.251 677.189 246.012C674.17 259.472 672.111 274.003 668.533 287.183C667.533 290.873 666.304 295.373 661.736 295.343C641.266 293.793 617.897 297.323 597.766 295.313C590.8 294.613 590.49 290.753 589.161 284.963C586.522 273.463 585.092 261.032 582.893 249.382C568.39 172.781 553.487 96.0493 536.935 19.8279C536.386 17.2979 533.197 6.92765 533.647 5.37762C533.977 4.2376 536.486 2.39752 537.805 2.51752C555.496 3.75755 575.357 0.907544 592.789 2.50757C595.058 2.71758 596.497 3.63757 597.616 5.6676C600.055 10.1077 600.315 23.1479 601.015 28.668C607.762 81.279 614.938 133.9 625.043 185.971C626.543 193.721 628.852 201.301 629.491 209.181Z" fill="#F0EEE9"/>
<path d="M887.779 108.089V87.6694C887.929 94.5294 887.949 101.259 887.779 108.089Z" fill="#F0EEE9"/>
<path d="M887.28 158.88C887.17 164.5 887.16 169.69 886.78 175.31C885.95 174.79 886.28 173.42 886.27 172.58C886.22 168.61 886.15 164.56 886.27 160.6C886.3 159.64 885.76 158.6 887.27 158.88H887.28Z" fill="#F0EEE9"/>
<path d="M886.779 36.888C886.599 33.708 886.239 30.538 886.269 27.168C886.269 26.328 885.949 24.958 886.779 24.438C886.999 28.428 888.029 32.928 886.779 36.888Z" fill="#F0EEE9"/>
<path d="M886.28 190.251C885.53 187.621 885.57 183.761 885.74 180.981C885.8 180.101 886.26 179.441 886.28 179.301C887.09 181.981 886.91 185.691 886.81 188.541C886.77 189.671 886.29 190.161 886.28 190.251Z" fill="#F0EEE9"/>
<path d="M887.279 62.7788C886.439 61.4588 886.439 59.0988 887.279 57.7988C887.309 59.3288 887.249 61.4488 887.279 62.7788Z" fill="#F0EEE9"/>
<path d="M887.279 138.96C886.449 137.77 886.449 135.67 887.279 134.48C887.259 135.75 887.299 137.64 887.279 138.96Z" fill="#F0EEE9"/>
<path d="M886.28 15.9673C885.46 14.8973 885.46 13.0673 886.28 11.9873C886.28 13.0673 886.26 14.9173 886.28 15.9673Z" fill="#F0EEE9"/>
<path d="M887.779 111.58C887.779 111.2 887.769 110.52 887.779 110.09C888.529 110.16 888.529 111.51 887.779 111.58Z" fill="#F0EEE9"/>
<path d="M1030.79 219.741C1026.22 196.611 1026.46 182.681 1010.43 163.85C1008.7 161.82 999.996 153.68 1000.15 151.67C1000.24 150.5 1007.37 146.86 1008.83 145.84C1029.53 131.33 1040.87 112.739 1043.15 87.4187C1046.26 52.7081 1035.7 25.7876 1003.01 10.9073C982.604 1.61714 962.244 2.88717 940.464 2.54717C926.75 2.32716 912.797 1.42717 898.994 2.00718C896.885 2.09718 891.817 2.25719 890.128 2.6372C889.208 2.8472 886.55 4.62718 886.28 5.51719L886.769 5.7672L886.28 6.0172C886.05 7.71723 886.27 10.1773 886.28 11.9974C886.28 13.0774 886.26 14.9274 886.28 15.9774C886.34 18.8675 886.62 21.6175 886.779 24.4376C886.999 28.4277 888.029 32.9278 886.779 36.8878C887.169 43.918 887.149 50.7581 887.279 57.7982C887.309 59.3282 887.249 61.4482 887.279 62.7783C887.449 71.0684 887.599 79.3786 887.779 87.6787C887.929 94.5389 887.949 101.269 887.779 108.099C887.759 108.759 887.799 109.429 887.779 110.089C888.529 110.159 888.529 111.509 887.779 111.579C887.599 119.219 887.379 126.849 887.279 134.49C887.259 135.76 887.299 137.65 887.279 138.97C887.189 145.6 887.409 152.26 887.279 158.89C887.169 164.51 887.159 169.7 886.779 175.32C886.699 176.51 886.39 177.91 886.28 179.3C887.089 181.98 886.909 185.691 886.809 188.541C886.769 189.671 886.29 190.161 886.28 190.251C886.09 196.541 886.47 202.881 886.28 209.171C886.22 211.281 885.84 213.131 885.78 215.151C885.52 224.041 885.54 232.911 885.3 241.812C884.92 256.312 883.021 272.662 884.261 287.122C884.6 291.112 886.04 294.793 890.508 295.333C905.84 297.173 924.781 293.923 940.494 295.333C942.803 295.603 944.882 293.152 945.192 291.042C946.611 281.152 943.922 266.952 943.233 256.712C941.883 236.841 940.154 216.811 939.235 196.961C938.815 187.881 939.215 178.67 938.735 169.58C938.805 168.61 939.454 168.4 940.234 168.08C958.056 160.81 969.28 177.86 972.079 193.101C977.636 223.351 970.39 256.802 979.445 286.832C980.475 290.252 981.574 294.273 985.413 295.323L1042.43 295.343C1043.15 294.583 1044.68 294.363 1045.12 293.443C1045.67 292.292 1045.93 290.842 1046.13 289.582C1040.83 266.332 1035.41 243.142 1030.78 219.731L1030.79 219.741ZM938.475 121.579C937.605 121.579 935.926 121.319 935.476 120.549C934.937 119.629 935.166 108.889 935.206 106.829C935.466 92.5989 936.186 78.2886 936.746 64.0483C936.866 61.0682 936.146 50.038 936.976 48.338C937.175 47.918 937.635 47.578 938.075 47.448C939.604 46.998 945.502 47.238 947.491 47.328C965.142 48.078 990.71 54.0281 992.699 75.4585C995.688 107.659 966.472 121.509 938.475 121.579Z" fill="#F0EEE9"/>
<path d="M797.422 65.8391L797.072 116.59C797.442 117.14 797.961 117.07 798.531 117.04C805.658 116.66 812.974 116.13 820.081 115.57C825.768 115.12 831.905 113.75 837.553 113.56C843.07 113.38 847.118 113.46 848.328 119.79C847.458 134.24 849.027 150.371 847.838 164.631C847.558 167.981 846.798 169.901 843.09 170.351C833.984 171.451 823.789 169.601 814.624 169.321C809.626 169.171 804.598 169.471 799.591 169.361C798.061 169.331 795.952 168.091 794.813 169.541L791.904 227.772C792.164 228.602 792.904 228.532 793.594 228.612C800.54 229.432 808.167 228.182 815.083 228.072C821.58 227.962 828.107 228.272 834.604 228.112C843.59 227.892 853.625 226.252 862.581 227.072C870.427 227.792 867.838 236.042 867.778 241.272C867.618 255.223 868.268 269.253 867.309 283.123C866.959 288.173 868.008 292.983 861.941 295.203L744.137 295.333C738.42 293.673 730.414 297.353 727.515 290.463C728.604 279.293 730.913 268.273 732.353 257.153C742.068 182.271 743.787 106.65 746.426 31.1684C746.636 25.1283 745.976 18.6582 746.386 12.7081C747.266 0.0378501 750.344 1.77792 761.659 1.99793C793.713 2.61794 827.867 0.717902 859.572 2.49793C861.031 2.57794 865.659 2.95796 866.669 3.38797C868.558 4.18798 869.148 6.87799 869.318 8.71802C870.127 17.8382 868.958 27.5284 868.778 36.5985C868.648 43.3287 869.178 50.3888 868.818 57.0589C868.728 58.729 868.498 62.509 868.188 63.909C867.059 69.0491 859.972 66.7991 856.574 66.7291C841.591 66.4291 826.528 66.0291 811.615 65.7291C806.897 65.6391 802.139 65.7791 797.432 65.8191L797.422 65.8391Z" fill="#F0EEE9"/>
<path d="M390.705 155.39L392.114 154.56C392.094 131.36 392.424 108.119 392.224 84.9087C392.214 83.7287 391.694 82.6386 391.684 81.4686C391.465 56.1182 390.985 30.8477 391.425 5.48725C392.044 3.51722 394.593 2.76718 396.442 2.52718C411.115 3.50719 427.448 1.23719 441.931 2.50722C451.596 3.35723 447.748 13.0174 447.158 19.7075C440.711 92.6288 441.981 167.09 444.14 240.312C444.499 252.372 445.569 264.582 445.679 276.622C445.709 279.602 445.849 292.623 444.389 294.303C443.58 295.243 442.56 295.233 441.431 295.343C427.488 296.613 411.605 294.343 397.442 295.323C394.943 295.273 393.484 293.533 391.984 291.803C370.015 237.882 350.844 182.85 330.004 128.509L328.744 128.81C328.854 135.77 328.634 142.74 328.734 149.7C329.244 185.181 329.354 220.751 329.734 256.262C329.844 266.662 331.173 277.692 330.274 288.132C330.004 291.272 328.874 294.553 325.536 295.363L270.312 295.083C269.443 294.383 268.413 293.302 268.373 292.132C271.921 254.382 273.101 216.521 273.781 178.55C274.73 125.689 275.59 71.9685 272.301 19.2375C272.051 15.2574 269.452 6.24728 273.321 3.81724C276.769 1.6472 288.413 2.74723 293.061 2.57723C302.997 2.20722 315.271 0.637151 325.036 1.53717C327.285 1.74717 328.704 2.73723 329.974 4.57726C332.233 7.86732 335.131 15.6275 336.851 19.6375C354.352 60.4783 368.456 102.849 385.617 143.82C387.247 147.7 389.446 151.38 390.715 155.42L390.705 155.39Z" fill="#F0EEE9"/>
<path d="M235.718 2.66748C239.736 2.61748 251.311 1.56748 254.069 3.99753C254.859 4.69754 255.279 5.68755 255.309 6.73757C252.24 45.2483 251.431 83.699 250.821 122.29C250.161 164.42 249.352 206.761 250.281 248.772C250.541 260.622 251.661 272.732 251.821 284.583C251.861 287.333 251.94 294.933 248.582 295.343L190.13 295.283C184.432 294.403 187.611 281.803 187.851 277.632C192.639 192.951 194.488 107.959 189.35 23.1979C189.04 18.0478 187.431 10.1976 188.371 5.27752C188.67 3.71749 190.19 3.17747 191.599 3.01747C203.773 1.61744 220.785 3.1975 233.599 3.0475C234.389 3.0475 235.148 2.68749 235.728 2.67749L235.718 2.66748Z" fill="#F0EEE9"/>
</svg>
