<svg width="181" height="40" viewBox="0 0 181 40" fill="none" xmlns="http://www.w3.org/2000/svg">
<path d="M63.2152 0.357901L69.8807 0.340332C70.7435 0.41736 70.545 1.40657 70.5234 2.06063C70.4451 4.4323 70.1737 6.81207 70.113 9.18779C69.8915 17.9271 69.7619 27.1922 70.252 35.9045C70.3074 36.8815 70.6031 38.2829 70.5234 39.2046C70.4937 39.5559 70.3884 39.8222 70.0104 39.9046H62.9331C62.2836 39.8032 62.4092 38.6154 62.42 38.1221C62.4767 35.6815 62.6995 33.2355 62.7575 30.7882C62.983 21.2488 62.902 11.6568 62.7629 2.1228C62.7535 1.49846 62.4403 0.701147 63.2152 0.359249V0.357901Z" fill="#222729"/>
<path d="M119.713 0.811709C119.716 0.788736 119.708 0.76306 119.713 0.744141L119.78 0.777925L119.713 0.811709Z" fill="#222729"/>
<path d="M157.233 0.0726464C158.128 0.349679 159.126 0.414545 160.013 0.698334C160.497 0.852391 160.772 0.967258 160.811 1.51727C160.941 3.29433 160.74 5.1322 160.738 6.90521C160.738 7.58225 161.093 8.99443 160.426 9.41336C160.316 9.48228 160.172 9.56607 160.037 9.55931C159.803 9.5458 159.021 9.14579 158.717 9.05525C156.354 8.34442 152.774 7.61603 151.972 10.7418C151.015 14.4729 155.744 16.8581 157.873 19.0473C162.067 23.3582 163.27 33.3084 158.582 37.5869C157.549 38.5301 155.15 39.8139 153.759 39.9099C151.475 40.0693 148.992 39.7977 146.688 39.891C145.337 39.3463 143.211 38.9963 143.062 37.2477C142.833 34.5327 143.341 31.5192 143.126 28.7678C143.288 28.388 142.986 27.2569 143.58 27.2759C143.835 27.284 144.831 28.2988 145.132 28.5232C146.57 29.5908 148.94 30.6773 150.739 30.1691C153.896 29.2786 153.892 25.6785 152.362 23.3312C149.751 19.3244 145.077 18.4527 143.604 13.358C142.657 10.0809 143.187 4.99436 145.814 2.56729C147.059 1.41591 149.339 0.274002 151.023 0.0726464C152.928 -0.155736 155.278 0.24292 157.231 0.0726464H157.233Z" fill="#222729"/>
<path d="M176.397 0.0726159C177.725 0.191537 180.625 1.04831 180.786 2.65915C180.675 4.5727 180.92 6.62274 180.786 8.52007C180.755 8.95521 180.654 9.77145 180.074 9.76604C179.949 9.76604 179.331 9.54441 179.148 9.48495C178.016 9.11738 176.464 8.73494 175.082 8.82008C170.351 9.11062 170.666 14.4432 174.539 14.7432C175.512 14.8188 176.606 14.5026 177.575 14.4688C177.741 14.4634 178.23 14.4634 178.323 14.604C178.462 14.8134 178.291 15.8202 178.284 16.1175C178.245 17.7689 178.315 19.5365 178.222 21.1703C178.209 21.4081 178.159 22.1176 178.014 22.2419C177.945 22.3014 177.864 22.3271 177.777 22.3406C177.178 22.4352 176.242 22.2325 175.552 22.2744C172.861 22.4365 171.029 23.7541 171.131 26.6204C171.169 27.6758 171.465 28.4299 172.28 29.1083C174.01 30.5448 176.196 29.9502 178.018 29.0421C178.514 28.7948 179.767 27.8988 180.157 27.8096C180.434 27.7461 180.856 27.7326 180.956 28.061C180.999 29.2826 181.002 30.511 180.99 31.7354C180.974 33.353 181.056 35.4206 180.921 36.9828C180.876 37.5017 180.724 37.8747 180.343 38.2233C177.674 40.6585 174.133 39.7436 170.836 39.9017C165.381 38.3017 163.105 34.2962 163.371 28.7677C163.513 25.8298 164.292 22.2082 166.511 20.1257C166.792 19.8635 168.393 18.7581 168.424 18.6C168.478 18.3162 166.966 16.9283 166.714 16.6256C163.796 13.1269 163.777 8.83494 165.77 4.84838C167.221 1.94427 170.109 0.344241 173.294 0.0712632C174.099 0.00234304 175.596 -0.000359707 176.398 0.0712632L176.397 0.0726159Z" fill="#222729"/>
<path d="M23.2666 26.703C22.6847 23.4097 19.9102 20.8893 17.1924 19.2285C16.8387 19.0123 15.7086 18.9406 16.4363 18.3096C16.7901 18.0028 17.4948 17.6677 17.9458 17.3244C22.3377 13.9838 22.7576 8.75397 19.9885 4.13091C18.7423 2.04979 15.9192 0.288947 13.4985 0.0713749C12.5089 -0.0178159 11.3977 0.137592 10.3946 0.0713749C9.89233 0.217324 9.36174 0.241651 8.8595 0.390302C7.93197 0.66328 6.95583 1.40383 6.42524 2.2025C6.32803 2.3498 6.09986 3.00927 5.90814 2.96467C5.85414 2.95116 5.3897 2.19844 5.26819 2.0552C4.35416 0.9768 3.49414 0.494357 2.12377 0.211919C1.9199 0.170027 1.64043 0.286244 1.48787 0.0713749H0.340269C0.131001 0.220026 -0.00266007 0.444358 4.01616e-05 0.707876L0.021642 39.4532C0.148553 39.8005 0.503633 39.8802 0.845212 39.91C4.94281 39.6883 9.33879 40.1964 13.4026 39.91C15.3225 39.7748 17.9174 38.7126 19.5295 37.6748C23.1491 35.3437 23.9767 30.7044 23.2693 26.7016L23.2666 26.703ZM7.48913 11.9459C7.57149 9.29723 7.71325 4.97687 11.553 5.61067C11.7352 5.6404 13.053 5.96067 13.1394 6.01338C14.4949 6.85393 15.1281 8.24315 15.0498 9.92832C14.8689 13.8406 11.3802 16.0676 7.77805 16.4757C7.54718 16.5014 7.51748 16.4879 7.48913 16.2568C7.35142 15.1352 7.45268 13.1351 7.48913 11.9446V11.9459ZM15.6573 28.8381C15.3616 32.4598 10.6768 33.9342 7.59174 33.5193C7.29066 33.4788 7.24611 33.2882 7.22046 33.0139C7.01524 30.7692 7.25556 27.9908 7.22586 25.6732C7.2137 24.6529 7.1732 23.6083 7.15835 22.5786C7.1543 22.2785 6.93018 21.7258 7.40677 21.6204C7.66194 21.5637 8.3883 21.5826 8.67318 21.6069C9.66686 21.692 11.1736 22.1623 12.0944 22.5691C14.796 23.761 15.8963 25.911 15.6573 28.8381Z" fill="#222729"/>
<path d="M85.0273 28.2662C85.3729 28.3838 85.4053 27.8919 85.4796 27.6068C85.9967 25.6148 86.3909 23.5364 86.8189 21.5404C87.9908 16.0728 88.9683 10.6645 89.8094 5.14418C89.9539 4.19686 90.0079 3.22117 90.1739 2.27656C90.3468 1.286 90.3886 0.56166 91.5389 0.340035L98.5204 0.37652C99.3723 0.817069 98.8943 1.55222 98.7458 2.21034C96.4061 12.5673 93.7976 22.8702 91.47 33.2433C91.0623 35.0623 90.7842 37.0258 90.3008 38.807C90.1658 39.3056 89.9998 39.9137 89.3828 39.9097C86.6177 39.7002 83.4612 40.1773 80.742 39.9056C79.801 39.811 79.7592 39.2894 79.5796 38.507C79.2232 36.9529 79.0301 35.2731 78.7331 33.6988C76.774 23.3472 74.761 12.9781 72.5252 2.67791C72.451 2.33602 72.0203 0.934641 72.081 0.725178C72.1256 0.571121 72.4645 0.322466 72.6427 0.338682C75.0324 0.506253 77.7151 0.121109 80.0697 0.337329C80.3762 0.365708 80.5706 0.490035 80.7218 0.764365C81.0512 1.36438 81.0863 3.12657 81.1808 3.87253C82.0922 10.9821 83.0615 18.0931 84.4265 25.1297C84.629 26.177 84.9409 27.2013 85.0273 28.2662Z" fill="#222729"/>
<path d="M119.916 14.6067V11.8472C119.936 12.7742 119.939 13.6837 119.916 14.6067Z" fill="#222729"/>
<path d="M119.849 21.4701C119.834 22.2296 119.832 22.931 119.781 23.6904C119.669 23.6202 119.713 23.435 119.712 23.3215C119.705 22.785 119.696 22.2377 119.712 21.7026C119.716 21.5728 119.643 21.4323 119.847 21.4701H119.849Z" fill="#222729"/>
<path d="M119.781 4.9852C119.757 4.55546 119.708 4.12708 119.712 3.67166C119.712 3.55815 119.669 3.37301 119.781 3.30273C119.811 3.84193 119.95 4.45005 119.781 4.9852Z" fill="#222729"/>
<path d="M119.713 25.7093C119.612 25.3538 119.617 24.8322 119.64 24.4565C119.648 24.3376 119.711 24.2484 119.713 24.2295C119.823 24.5917 119.798 25.093 119.785 25.4782C119.78 25.6309 119.715 25.6971 119.713 25.7093Z" fill="#222729"/>
<path d="M119.848 8.48353C119.735 8.30515 119.735 7.98623 119.848 7.81055C119.852 8.01731 119.844 8.3038 119.848 8.48353Z" fill="#222729"/>
<path d="M119.848 18.7783C119.736 18.6175 119.736 18.3337 119.848 18.1729C119.846 18.3445 119.851 18.5999 119.848 18.7783Z" fill="#222729"/>
<path d="M119.713 2.15796C119.603 2.01337 119.603 1.76607 119.713 1.62012C119.713 1.76607 119.711 2.01607 119.713 2.15796Z" fill="#222729"/>
<path d="M119.916 15.0783C119.916 15.027 119.914 14.9351 119.916 14.877C120.017 14.8864 120.017 15.0688 119.916 15.0783Z" fill="#222729"/>
<path d="M139.233 29.6945C138.616 26.5688 138.649 24.6864 136.483 22.1417C136.25 21.8674 135.074 20.7674 135.094 20.4957C135.106 20.3376 136.07 19.8457 136.267 19.7079C139.063 17.747 140.594 15.2348 140.902 11.8131C141.323 7.1225 139.896 3.4846 135.481 1.47375C132.725 0.218324 129.974 0.389951 127.032 0.344004C125.18 0.314274 123.295 0.192649 121.431 0.271029C121.146 0.283191 120.461 0.304814 120.233 0.356166C120.109 0.384545 119.75 0.625091 119.713 0.745363L119.78 0.779148L119.713 0.812932C119.682 1.04267 119.712 1.3751 119.713 1.62105C119.713 1.767 119.711 2.01701 119.713 2.1589C119.722 2.54945 119.759 2.92108 119.781 3.30217C119.811 3.84136 119.95 4.44949 119.781 4.98463C119.834 5.93465 119.831 6.85899 119.848 7.81036C119.853 8.01712 119.844 8.30361 119.848 8.48334C119.871 9.60363 119.892 10.7266 119.916 11.8483C119.936 12.7753 119.939 13.6848 119.916 14.6078C119.913 14.697 119.919 14.7875 119.916 14.8767C120.017 14.8862 120.017 15.0686 119.916 15.0781C119.892 16.1105 119.862 17.1416 119.848 18.1741C119.846 18.3457 119.851 18.6011 119.848 18.7795C119.836 19.6754 119.866 20.5755 119.848 21.4714C119.834 22.2309 119.832 22.9323 119.781 23.6917C119.77 23.8525 119.728 24.0417 119.713 24.2296C119.823 24.5917 119.799 25.0931 119.785 25.4783C119.78 25.631 119.715 25.6972 119.713 25.7093C119.688 26.5594 119.739 27.4161 119.713 28.2661C119.705 28.5513 119.654 28.8013 119.646 29.0743C119.611 30.2756 119.614 31.4743 119.581 32.677C119.53 34.6365 119.273 36.846 119.441 38.8001C119.487 39.3393 119.681 39.8366 120.285 39.9096C122.356 40.1583 124.914 39.7191 127.036 39.9096C127.348 39.9461 127.629 39.615 127.671 39.3299C127.863 37.9934 127.5 36.0744 127.406 34.6906C127.224 32.0054 126.991 29.2986 126.866 26.6161C126.81 25.3891 126.864 24.1444 126.799 22.916C126.808 22.785 126.896 22.7566 127.001 22.7133C129.409 21.7309 130.925 24.035 131.303 26.0945C132.054 30.1824 131.075 34.7028 132.298 38.7609C132.437 39.2231 132.585 39.7664 133.104 39.9083L140.805 39.911C140.902 39.8083 141.11 39.7785 141.169 39.6542C141.244 39.4988 141.279 39.3028 141.306 39.1326C140.589 35.9906 139.857 32.8568 139.232 29.6932L139.233 29.6945ZM126.765 16.4294C126.648 16.4294 126.421 16.3943 126.36 16.2902C126.287 16.1659 126.318 14.7145 126.324 14.4362C126.359 12.5131 126.456 10.5793 126.532 8.65497C126.548 8.25226 126.451 6.76169 126.563 6.53196C126.59 6.4752 126.652 6.42925 126.711 6.41168C126.918 6.35087 127.714 6.38331 127.983 6.39547C130.367 6.49682 133.821 7.30089 134.089 10.1969C134.493 14.5483 130.547 16.42 126.765 16.4294Z" fill="#222729"/>
<path d="M107.711 8.89591L107.664 15.7541C107.713 15.8285 107.784 15.819 107.861 15.815C108.823 15.7636 109.812 15.692 110.771 15.6163C111.54 15.5555 112.369 15.3703 113.131 15.3447C113.877 15.3203 114.424 15.3312 114.587 16.1866C114.469 18.1393 114.681 20.3191 114.521 22.2462C114.483 22.6989 114.38 22.9583 113.879 23.0191C112.649 23.1678 111.272 22.9178 110.034 22.8799C109.359 22.8597 108.68 22.9002 108.004 22.8854C107.797 22.8813 107.512 22.7137 107.358 22.9097L106.966 30.7787C107.001 30.8909 107.101 30.8815 107.194 30.8923C108.132 31.0031 109.162 30.8342 110.096 30.8193C110.974 30.8044 111.856 30.8463 112.733 30.8247C113.947 30.795 115.302 30.5733 116.512 30.6841C117.572 30.7814 117.222 31.8963 117.214 32.6031C117.193 34.4883 117.28 36.3843 117.151 38.2586C117.104 38.9411 117.245 39.5911 116.426 39.8911L100.513 39.9086C99.741 39.6843 98.6596 40.1816 98.2681 39.2505C98.4152 37.741 98.7271 36.2518 98.9215 34.7491C100.234 24.63 100.466 14.4109 100.822 4.21069C100.851 3.39445 100.762 2.52011 100.817 1.71605C100.936 0.00385208 101.352 0.238993 102.88 0.268723C107.21 0.352508 111.823 0.0957468 116.106 0.336292C116.303 0.347103 116.928 0.398453 117.064 0.456562C117.32 0.564672 117.399 0.928195 117.422 1.17685C117.532 2.4093 117.374 3.71879 117.349 4.94449C117.332 5.85396 117.403 6.80803 117.355 7.7094C117.342 7.93508 117.311 8.4459 117.27 8.63509C117.117 9.3297 116.16 9.02564 115.701 9.01618C113.677 8.97564 111.642 8.92158 109.628 8.88104C108.991 8.86888 108.348 8.8878 107.712 8.8932L107.711 8.89591Z" fill="#222729"/>
<path d="M52.7731 20.9989L52.9635 20.8868C52.9608 17.7516 53.0053 14.611 52.9783 11.4744C52.9769 11.315 52.9067 11.1677 52.9054 11.0095C52.8757 7.5838 52.8109 4.16888 52.8703 0.741785C52.954 0.475564 53.2983 0.374208 53.548 0.341775C55.53 0.47421 57.7361 0.167449 59.6924 0.339073C60.998 0.45394 60.4782 1.75937 60.3985 2.66344C59.5277 12.5177 59.6992 22.58 59.9908 32.4748C60.0394 34.1046 60.1839 35.7546 60.1987 37.3817C60.2028 37.7844 60.2217 39.5439 60.0246 39.7709C59.9152 39.8979 59.7775 39.8966 59.6249 39.9114C57.7415 40.0831 55.5962 39.7763 53.6831 39.9087C53.3455 39.902 53.1484 39.6668 52.9459 39.433C49.9783 32.1464 47.3888 24.7098 44.5738 17.3664L44.4037 17.407C44.4186 18.3475 44.3889 19.2894 44.4024 20.23C44.4712 25.0247 44.4861 29.8315 44.5374 34.6303C44.5522 36.0357 44.7318 37.5263 44.6103 38.9371C44.5738 39.3614 44.4213 39.8047 43.9703 39.9141L36.5109 39.8763C36.3935 39.7817 36.2544 39.6357 36.249 39.4776C36.7283 34.3762 36.8876 29.2599 36.9794 24.1287C37.1077 16.9853 37.2238 9.72574 36.7796 2.59993C36.7459 2.06208 36.3948 0.844488 36.9173 0.516103C37.3831 0.222855 38.956 0.371508 39.5838 0.348534C40.9258 0.298533 42.5838 0.0863659 43.9028 0.20799C44.2066 0.236369 44.3983 0.370156 44.5698 0.618809C44.8749 1.06341 45.2664 2.11208 45.4987 2.65398C47.8627 8.173 49.7677 13.8988 52.0859 19.4354C52.3059 19.9597 52.603 20.457 52.7744 21.003L52.7731 20.9989Z" fill="#222729"/>
<path d="M31.8398 0.360446C32.3825 0.353689 33.9459 0.211793 34.3186 0.540178C34.4252 0.634774 34.4819 0.768563 34.486 0.910457C34.0715 6.11461 33.9621 11.3107 33.8798 16.5256C33.7907 22.219 33.6813 27.9407 33.8069 33.6178C33.842 35.2192 33.9932 36.8557 34.0148 38.4571C34.0202 38.8287 34.031 39.8558 33.5774 39.9112L25.6819 39.9031C24.9123 39.7841 25.3417 38.0814 25.3741 37.5179C26.0208 26.0744 26.2705 14.5891 25.5766 3.13482C25.5347 2.43886 25.3174 1.37803 25.4443 0.713154C25.4848 0.502339 25.69 0.429367 25.8804 0.407745C27.5248 0.218553 29.8227 0.43207 31.5535 0.411799C31.6602 0.411799 31.7628 0.36315 31.8411 0.361799L31.8398 0.360446Z" fill="#222729"/>
</svg>
