<svg width="595" height="225" viewBox="0 0 595 225" fill="none" xmlns="http://www.w3.org/2000/svg">
<g clip-path="url(#clip0_80_7751)">
<rect width="595" height="225" rx="24" fill="#61B1EC"/>
<g opacity="0.5">
<circle cx="4" cy="29" r="32" fill="#9EDFFD"/>
<circle cx="10.5183" cy="15.3704" r="6.61111" fill="white" stroke="white"/>
<path fill-rule="evenodd" clip-rule="evenodd" d="M20.9016 23.4046C23.8281 23.7391 25.9294 26.3826 25.5949 29.309C25.3557 31.4021 24.7215 34.6056 23.5562 37.7888C22.449 40.8132 20.5566 44.6823 17.3136 47.1623C14.9738 48.9515 11.6265 48.5052 9.83727 46.1654C8.04801 43.8256 8.49431 40.4784 10.8341 38.6891C11.6208 38.0876 12.6419 36.574 13.5397 34.1218C14.3792 31.8285 14.8414 29.4616 14.9972 28.0979C15.3317 25.1714 17.9752 23.0702 20.9016 23.4046Z" fill="white"/>
</g>
<g opacity="0.5">
<circle cx="88" cy="29" r="32" fill="#9EDFFD"/>
<circle cx="94.5183" cy="15.3704" r="6.61111" fill="white" stroke="white"/>
<path fill-rule="evenodd" clip-rule="evenodd" d="M104.902 23.4046C107.828 23.7391 109.929 26.3826 109.595 29.309C109.356 31.4021 108.722 34.6056 107.556 37.7888C106.449 40.8132 104.557 44.6823 101.314 47.1623C98.9738 48.9515 95.6265 48.5052 93.8373 46.1654C92.048 43.8256 92.4943 40.4784 94.8341 38.6891C95.6208 38.0876 96.6419 36.574 97.5397 34.1218C98.3792 31.8285 98.8414 29.4616 98.9972 28.0979C99.3317 25.1714 101.975 23.0702 104.902 23.4046Z" fill="white"/>
</g>
<g opacity="0.5">
<circle cx="172" cy="29" r="32" fill="#9EDFFD"/>
<circle cx="178.518" cy="15.3704" r="6.61111" fill="white" stroke="white"/>
<path fill-rule="evenodd" clip-rule="evenodd" d="M188.902 23.4046C191.828 23.7391 193.929 26.3826 193.595 29.309C193.356 31.4021 192.722 34.6056 191.556 37.7888C190.449 40.8132 188.557 44.6823 185.314 47.1623C182.974 48.9515 179.627 48.5052 177.837 46.1654C176.048 43.8256 176.494 40.4784 178.834 38.6891C179.621 38.0876 180.642 36.574 181.54 34.1218C182.379 31.8285 182.841 29.4616 182.997 28.0979C183.332 25.1714 185.975 23.0702 188.902 23.4046Z" fill="white"/>
</g>
<g opacity="0.5">
<circle cx="256" cy="29" r="32" fill="#9EDFFD"/>
<circle cx="262.518" cy="15.3704" r="6.61111" fill="white" stroke="white"/>
<path fill-rule="evenodd" clip-rule="evenodd" d="M272.902 23.4046C275.828 23.7391 277.929 26.3826 277.595 29.309C277.356 31.4021 276.722 34.6056 275.556 37.7888C274.449 40.8132 272.557 44.6823 269.314 47.1623C266.974 48.9515 263.627 48.5052 261.837 46.1654C260.048 43.8256 260.494 40.4784 262.834 38.6891C263.621 38.0876 264.642 36.574 265.54 34.1218C266.379 31.8285 266.841 29.4616 266.997 28.0979C267.332 25.1714 269.975 23.0702 272.902 23.4046Z" fill="white"/>
</g>
<g opacity="0.5">
<circle cx="340" cy="29" r="32" fill="#9EDFFD"/>
<circle cx="346.518" cy="15.3704" r="6.61111" fill="white" stroke="white"/>
<path fill-rule="evenodd" clip-rule="evenodd" d="M356.902 23.4046C359.828 23.7391 361.929 26.3826 361.595 29.309C361.356 31.4021 360.722 34.6056 359.556 37.7888C358.449 40.8132 356.557 44.6823 353.314 47.1623C350.974 48.9515 347.627 48.5052 345.837 46.1654C344.048 43.8256 344.494 40.4784 346.834 38.6891C347.621 38.0876 348.642 36.574 349.54 34.1218C350.379 31.8285 350.841 29.4616 350.997 28.0979C351.332 25.1714 353.975 23.0702 356.902 23.4046Z" fill="white"/>
</g>
<g opacity="0.5">
<circle cx="424" cy="29" r="32" fill="#9EDFFD"/>
<circle cx="430.518" cy="15.3704" r="6.61111" fill="white" stroke="white"/>
<path fill-rule="evenodd" clip-rule="evenodd" d="M440.902 23.4046C443.828 23.7391 445.929 26.3826 445.595 29.309C445.356 31.4021 444.722 34.6056 443.556 37.7888C442.449 40.8132 440.557 44.6823 437.314 47.1623C434.974 48.9515 431.627 48.5052 429.837 46.1654C428.048 43.8256 428.494 40.4784 430.834 38.6891C431.621 38.0876 432.642 36.574 433.54 34.1218C434.379 31.8285 434.841 29.4616 434.997 28.0979C435.332 25.1714 437.975 23.0702 440.902 23.4046Z" fill="white"/>
</g>
<g opacity="0.5">
<circle cx="508" cy="29" r="32" fill="#9EDFFD"/>
<circle cx="514.518" cy="15.3704" r="6.61111" fill="white" stroke="white"/>
<path fill-rule="evenodd" clip-rule="evenodd" d="M524.902 23.4046C527.828 23.7391 529.929 26.3826 529.595 29.309C529.356 31.4021 528.722 34.6056 527.556 37.7888C526.449 40.8132 524.557 44.6823 521.314 47.1623C518.974 48.9515 515.627 48.5052 513.837 46.1654C512.048 43.8256 512.494 40.4784 514.834 38.6891C515.621 38.0876 516.642 36.574 517.54 34.1218C518.379 31.8285 518.841 29.4616 518.997 28.0979C519.332 25.1714 521.975 23.0702 524.902 23.4046Z" fill="white"/>
</g>
<g opacity="0.5">
<circle cx="592" cy="29" r="32" fill="#9EDFFD"/>
<circle cx="598.518" cy="15.3704" r="6.61111" fill="white" stroke="white"/>
</g>
<g opacity="0.5">
<circle cx="46" cy="113" r="32" fill="#9EDFFD"/>
<circle cx="52.5183" cy="99.3704" r="6.61111" fill="white" stroke="white"/>
<path fill-rule="evenodd" clip-rule="evenodd" d="M62.9016 107.405C65.8281 107.739 67.9294 110.383 67.5949 113.309C67.3557 115.402 66.7215 118.606 65.5562 121.789C64.449 124.813 62.5566 128.682 59.3136 131.162C56.9738 132.952 53.6265 132.505 51.8373 130.165C50.048 127.826 50.4943 124.478 52.8341 122.689C53.6208 122.088 54.6419 120.574 55.5397 118.122C56.3792 115.828 56.8414 113.462 56.9972 112.098C57.3317 109.171 59.9752 107.07 62.9016 107.405Z" fill="white"/>
</g>
<g opacity="0.5">
<circle cx="130" cy="113" r="32" fill="#9EDFFD"/>
<circle cx="136.518" cy="99.3704" r="6.61111" fill="white" stroke="white"/>
<path fill-rule="evenodd" clip-rule="evenodd" d="M146.902 107.405C149.828 107.739 151.929 110.383 151.595 113.309C151.356 115.402 150.722 118.606 149.556 121.789C148.449 124.813 146.557 128.682 143.314 131.162C140.974 132.952 137.627 132.505 135.837 130.165C134.048 127.826 134.494 124.478 136.834 122.689C137.621 122.088 138.642 120.574 139.54 118.122C140.379 115.828 140.841 113.462 140.997 112.098C141.332 109.171 143.975 107.07 146.902 107.405Z" fill="white"/>
</g>
<g opacity="0.5">
<circle cx="214" cy="113" r="32" fill="#9EDFFD"/>
<circle cx="220.518" cy="99.3704" r="6.61111" fill="white" stroke="white"/>
<path fill-rule="evenodd" clip-rule="evenodd" d="M230.902 107.405C233.828 107.739 235.929 110.383 235.595 113.309C235.356 115.402 234.722 118.606 233.556 121.789C232.449 124.813 230.557 128.682 227.314 131.162C224.974 132.952 221.627 132.505 219.837 130.165C218.048 127.826 218.494 124.478 220.834 122.689C221.621 122.088 222.642 120.574 223.54 118.122C224.379 115.828 224.841 113.462 224.997 112.098C225.332 109.171 227.975 107.07 230.902 107.405Z" fill="white"/>
</g>
<g opacity="0.5">
<circle cx="298" cy="113" r="32" fill="#9EDFFD"/>
<circle cx="304.518" cy="99.3704" r="6.61111" fill="white" stroke="white"/>
<path fill-rule="evenodd" clip-rule="evenodd" d="M314.902 107.405C317.828 107.739 319.929 110.383 319.595 113.309C319.356 115.402 318.722 118.606 317.556 121.789C316.449 124.813 314.557 128.682 311.314 131.162C308.974 132.952 305.627 132.505 303.837 130.165C302.048 127.826 302.494 124.478 304.834 122.689C305.621 122.088 306.642 120.574 307.54 118.122C308.379 115.828 308.841 113.462 308.997 112.098C309.332 109.171 311.975 107.07 314.902 107.405Z" fill="white"/>
</g>
<g opacity="0.5">
<circle cx="382" cy="113" r="32" fill="#9EDFFD"/>
<circle cx="388.518" cy="99.3704" r="6.61111" fill="white" stroke="white"/>
<path fill-rule="evenodd" clip-rule="evenodd" d="M398.902 107.405C401.828 107.739 403.929 110.383 403.595 113.309C403.356 115.402 402.722 118.606 401.556 121.789C400.449 124.813 398.557 128.682 395.314 131.162C392.974 132.952 389.627 132.505 387.837 130.165C386.048 127.826 386.494 124.478 388.834 122.689C389.621 122.088 390.642 120.574 391.54 118.122C392.379 115.828 392.841 113.462 392.997 112.098C393.332 109.171 395.975 107.07 398.902 107.405Z" fill="white"/>
</g>
<g opacity="0.5">
<circle cx="466" cy="113" r="32" fill="#9EDFFD"/>
<circle cx="472.518" cy="99.3704" r="6.61111" fill="white" stroke="white"/>
<path fill-rule="evenodd" clip-rule="evenodd" d="M482.902 107.405C485.828 107.739 487.929 110.383 487.595 113.309C487.356 115.402 486.722 118.606 485.556 121.789C484.449 124.813 482.557 128.682 479.314 131.162C476.974 132.952 473.627 132.505 471.837 130.165C470.048 127.826 470.494 124.478 472.834 122.689C473.621 122.088 474.642 120.574 475.54 118.122C476.379 115.828 476.841 113.462 476.997 112.098C477.332 109.171 479.975 107.07 482.902 107.405Z" fill="white"/>
</g>
<g opacity="0.5">
<circle cx="550" cy="113" r="32" fill="#9EDFFD"/>
<circle cx="556.518" cy="99.3704" r="6.61111" fill="white" stroke="white"/>
<path fill-rule="evenodd" clip-rule="evenodd" d="M566.902 107.405C569.828 107.739 571.929 110.383 571.595 113.309C571.356 115.402 570.722 118.606 569.556 121.789C568.449 124.813 566.557 128.682 563.314 131.162C560.974 132.952 557.627 132.505 555.837 130.165C554.048 127.826 554.494 124.478 556.834 122.689C557.621 122.088 558.642 120.574 559.54 118.122C560.379 115.828 560.841 113.462 560.997 112.098C561.332 109.171 563.975 107.07 566.902 107.405Z" fill="white"/>
</g>
<g opacity="0.5">
<circle cx="4" cy="197" r="32" fill="#9EDFFD"/>
<circle cx="10.5183" cy="183.37" r="6.61111" fill="white" stroke="white"/>
<path fill-rule="evenodd" clip-rule="evenodd" d="M20.9016 191.405C23.8281 191.739 25.9294 194.383 25.5949 197.309C25.3557 199.402 24.7215 202.606 23.5562 205.789C22.449 208.813 20.5566 212.682 17.3136 215.162C14.9738 216.952 11.6265 216.505 9.83727 214.165C8.04801 211.826 8.49431 208.478 10.8341 206.689C11.6208 206.088 12.6419 204.574 13.5397 202.122C14.3792 199.828 14.8414 197.462 14.9972 196.098C15.3317 193.171 17.9752 191.07 20.9016 191.405Z" fill="white"/>
</g>
<g opacity="0.5">
<circle cx="88" cy="197" r="32" fill="#9EDFFD"/>
<circle cx="94.5183" cy="183.37" r="6.61111" fill="white" stroke="white"/>
<path fill-rule="evenodd" clip-rule="evenodd" d="M104.902 191.405C107.828 191.739 109.929 194.383 109.595 197.309C109.356 199.402 108.722 202.606 107.556 205.789C106.449 208.813 104.557 212.682 101.314 215.162C98.9738 216.952 95.6265 216.505 93.8373 214.165C92.048 211.826 92.4943 208.478 94.8341 206.689C95.6208 206.088 96.6419 204.574 97.5397 202.122C98.3792 199.828 98.8414 197.462 98.9972 196.098C99.3317 193.171 101.975 191.07 104.902 191.405Z" fill="white"/>
</g>
<g opacity="0.5">
<circle cx="172" cy="197" r="32" fill="#9EDFFD"/>
<circle cx="178.518" cy="183.37" r="6.61111" fill="white" stroke="white"/>
<path fill-rule="evenodd" clip-rule="evenodd" d="M188.902 191.405C191.828 191.739 193.929 194.383 193.595 197.309C193.356 199.402 192.722 202.606 191.556 205.789C190.449 208.813 188.557 212.682 185.314 215.162C182.974 216.952 179.627 216.505 177.837 214.165C176.048 211.826 176.494 208.478 178.834 206.689C179.621 206.088 180.642 204.574 181.54 202.122C182.379 199.828 182.841 197.462 182.997 196.098C183.332 193.171 185.975 191.07 188.902 191.405Z" fill="white"/>
</g>
<g opacity="0.5">
<circle cx="256" cy="197" r="32" fill="#9EDFFD"/>
<circle cx="262.518" cy="183.37" r="6.61111" fill="white" stroke="white"/>
<path fill-rule="evenodd" clip-rule="evenodd" d="M272.902 191.405C275.828 191.739 277.929 194.383 277.595 197.309C277.356 199.402 276.722 202.606 275.556 205.789C274.449 208.813 272.557 212.682 269.314 215.162C266.974 216.952 263.627 216.505 261.837 214.165C260.048 211.826 260.494 208.478 262.834 206.689C263.621 206.088 264.642 204.574 265.54 202.122C266.379 199.828 266.841 197.462 266.997 196.098C267.332 193.171 269.975 191.07 272.902 191.405Z" fill="white"/>
</g>
<g opacity="0.5">
<circle cx="340" cy="197" r="32" fill="#9EDFFD"/>
<circle cx="346.518" cy="183.37" r="6.61111" fill="white" stroke="white"/>
<path fill-rule="evenodd" clip-rule="evenodd" d="M356.902 191.405C359.828 191.739 361.929 194.383 361.595 197.309C361.356 199.402 360.722 202.606 359.556 205.789C358.449 208.813 356.557 212.682 353.314 215.162C350.974 216.952 347.627 216.505 345.837 214.165C344.048 211.826 344.494 208.478 346.834 206.689C347.621 206.088 348.642 204.574 349.54 202.122C350.379 199.828 350.841 197.462 350.997 196.098C351.332 193.171 353.975 191.07 356.902 191.405Z" fill="white"/>
</g>
<g opacity="0.5">
<circle cx="424" cy="197" r="32" fill="#9EDFFD"/>
<circle cx="430.518" cy="183.37" r="6.61111" fill="white" stroke="white"/>
<path fill-rule="evenodd" clip-rule="evenodd" d="M440.902 191.405C443.828 191.739 445.929 194.383 445.595 197.309C445.356 199.402 444.722 202.606 443.556 205.789C442.449 208.813 440.557 212.682 437.314 215.162C434.974 216.952 431.627 216.505 429.837 214.165C428.048 211.826 428.494 208.478 430.834 206.689C431.621 206.088 432.642 204.574 433.54 202.122C434.379 199.828 434.841 197.462 434.997 196.098C435.332 193.171 437.975 191.07 440.902 191.405Z" fill="white"/>
</g>
<g opacity="0.5">
<circle cx="508" cy="197" r="32" fill="#9EDFFD"/>
<circle cx="514.518" cy="183.37" r="6.61111" fill="white" stroke="white"/>
<path fill-rule="evenodd" clip-rule="evenodd" d="M524.902 191.405C527.828 191.739 529.929 194.383 529.595 197.309C529.356 199.402 528.722 202.606 527.556 205.789C526.449 208.813 524.557 212.682 521.314 215.162C518.974 216.952 515.627 216.505 513.837 214.165C512.048 211.826 512.494 208.478 514.834 206.689C515.621 206.088 516.642 204.574 517.54 202.122C518.379 199.828 518.841 197.462 518.997 196.098C519.332 193.171 521.975 191.07 524.902 191.405Z" fill="white"/>
</g>
<g opacity="0.5">
<circle cx="592" cy="197" r="32" fill="#9EDFFD"/>
<circle cx="598.518" cy="183.37" r="6.61111" fill="white" stroke="white"/>
</g>
<g filter="url(#filter0_d_80_7751)">
<mask id="path-69-outside-1_80_7751" maskUnits="userSpaceOnUse" x="174" y="62" width="248" height="104" fill="black">
<rect fill="white" x="174" y="62" width="248" height="104"/>
<path d="M235.827 103.732V98.242H230.276V70.06H235.827V64.509H253.029V70.06H258.641V81.65H253.029V86.53H258.641V98.242H253.029V103.732H235.827ZM236.437 97.632H252.419V87.14H241.317V81.101H252.419V70.67H236.437V97.632ZM273.338 103.732V97.632H278.889V70.67H273.338V64.509H290.601V70.67H284.989V97.632H290.601V103.732H273.338ZM305.32 103.732V64.509H311.481V70.06H316.971V75.55H322.583V92.081H327.463V64.509H333.685V103.732H327.463V98.242H321.973V92.691H316.361V76.16H311.481V103.732H305.32ZM348.382 103.732V97.632H353.933V70.67H348.382V64.509H365.645V70.67H360.033V97.632H365.645V103.732H348.382ZM176.133 163.732V130.06H181.684V124.509H198.886V130.06H204.498V147.14H198.886V152.691H182.294V163.732H176.133ZM182.294 146.53H198.276V130.67H182.294V146.53ZM224.747 163.732V158.242H219.196V124.509H225.357V157.632H241.339V124.509H247.561V158.242H241.949V163.732H224.747ZM267.809 163.732V158.242H262.258V146.53H267.809V141.101H284.401V130.67H268.419V136.16H262.258V124.509H285.011V130.06H290.623V141.65H285.011V147.14H268.419V157.632H284.401V152.081H290.623V163.732H267.809ZM310.871 163.732V158.242H305.32V146.53H310.871V141.101H327.463V130.67H311.481V136.16H305.32V124.509H328.073V130.06H333.685V141.65H328.073V147.14H311.481V157.632H327.463V152.081H333.685V163.732H310.871ZM353.933 163.732V158.242H348.382V124.509H354.543V157.632H370.525V152.081H376.747V158.242H371.135V163.732H353.933ZM396.995 163.732V158.242H391.444V130.06H396.995V124.509H414.197V130.06H419.809V136.16H413.587V130.67H397.605V141.101H408.707V147.14H397.605V157.632H413.587V152.081H419.809V158.242H414.197V163.732H396.995Z"/>
</mask>
<path d="M235.827 103.732V98.242H230.276V70.06H235.827V64.509H253.029V70.06H258.641V81.65H253.029V86.53H258.641V98.242H253.029V103.732H235.827ZM236.437 97.632H252.419V87.14H241.317V81.101H252.419V70.67H236.437V97.632ZM273.338 103.732V97.632H278.889V70.67H273.338V64.509H290.601V70.67H284.989V97.632H290.601V103.732H273.338ZM305.32 103.732V64.509H311.481V70.06H316.971V75.55H322.583V92.081H327.463V64.509H333.685V103.732H327.463V98.242H321.973V92.691H316.361V76.16H311.481V103.732H305.32ZM348.382 103.732V97.632H353.933V70.67H348.382V64.509H365.645V70.67H360.033V97.632H365.645V103.732H348.382ZM176.133 163.732V130.06H181.684V124.509H198.886V130.06H204.498V147.14H198.886V152.691H182.294V163.732H176.133ZM182.294 146.53H198.276V130.67H182.294V146.53ZM224.747 163.732V158.242H219.196V124.509H225.357V157.632H241.339V124.509H247.561V158.242H241.949V163.732H224.747ZM267.809 163.732V158.242H262.258V146.53H267.809V141.101H284.401V130.67H268.419V136.16H262.258V124.509H285.011V130.06H290.623V141.65H285.011V147.14H268.419V157.632H284.401V152.081H290.623V163.732H267.809ZM310.871 163.732V158.242H305.32V146.53H310.871V141.101H327.463V130.67H311.481V136.16H305.32V124.509H328.073V130.06H333.685V141.65H328.073V147.14H311.481V157.632H327.463V152.081H333.685V163.732H310.871ZM353.933 163.732V158.242H348.382V124.509H354.543V157.632H370.525V152.081H376.747V158.242H371.135V163.732H353.933ZM396.995 163.732V158.242H391.444V130.06H396.995V124.509H414.197V130.06H419.809V136.16H413.587V130.67H397.605V141.101H408.707V147.14H397.605V157.632H413.587V152.081H419.809V158.242H414.197V163.732H396.995Z" fill="white"/>
<path d="M235.827 103.732H233.827C233.827 104.837 234.722 105.732 235.827 105.732V103.732ZM235.827 98.242H237.827C237.827 97.1374 236.931 96.242 235.827 96.242V98.242ZM230.276 98.242H228.276C228.276 99.3466 229.171 100.242 230.276 100.242V98.242ZM230.276 70.06V68.06C229.171 68.06 228.276 68.9554 228.276 70.06H230.276ZM235.827 70.06V72.06C236.931 72.06 237.827 71.1646 237.827 70.06H235.827ZM235.827 64.509V62.509C234.722 62.509 233.827 63.4044 233.827 64.509H235.827ZM253.029 64.509H255.029C255.029 63.4044 254.133 62.509 253.029 62.509V64.509ZM253.029 70.06H251.029C251.029 71.1646 251.924 72.06 253.029 72.06V70.06ZM258.641 70.06H260.641C260.641 68.9554 259.745 68.06 258.641 68.06V70.06ZM258.641 81.65V83.65C259.745 83.65 260.641 82.7546 260.641 81.65H258.641ZM253.029 81.65V79.65C251.924 79.65 251.029 80.5454 251.029 81.65H253.029ZM253.029 86.53H251.029C251.029 87.6346 251.924 88.53 253.029 88.53V86.53ZM258.641 86.53H260.641C260.641 85.4254 259.745 84.53 258.641 84.53V86.53ZM258.641 98.242V100.242C259.745 100.242 260.641 99.3466 260.641 98.242H258.641ZM253.029 98.242V96.242C251.924 96.242 251.029 97.1374 251.029 98.242H253.029ZM253.029 103.732V105.732C254.133 105.732 255.029 104.837 255.029 103.732H253.029ZM236.437 97.632H234.437C234.437 98.7366 235.332 99.632 236.437 99.632V97.632ZM252.419 97.632V99.632C253.523 99.632 254.419 98.7366 254.419 97.632H252.419ZM252.419 87.14H254.419C254.419 86.0354 253.523 85.14 252.419 85.14V87.14ZM241.317 87.14H239.317C239.317 88.2446 240.212 89.14 241.317 89.14V87.14ZM241.317 81.101V79.101C240.212 79.101 239.317 79.9964 239.317 81.101H241.317ZM252.419 81.101V83.101C253.523 83.101 254.419 82.2056 254.419 81.101H252.419ZM252.419 70.67H254.419C254.419 69.5654 253.523 68.67 252.419 68.67V70.67ZM236.437 70.67V68.67C235.332 68.67 234.437 69.5654 234.437 70.67H236.437ZM235.827 103.732H237.827V98.242H235.827H233.827V103.732H235.827ZM235.827 98.242V96.242H230.276V98.242V100.242H235.827V98.242ZM230.276 98.242H232.276V70.06H230.276H228.276V98.242H230.276ZM230.276 70.06V72.06H235.827V70.06V68.06H230.276V70.06ZM235.827 70.06H237.827V64.509H235.827H233.827V70.06H235.827ZM235.827 64.509V66.509H253.029V64.509V62.509H235.827V64.509ZM253.029 64.509H251.029V70.06H253.029H255.029V64.509H253.029ZM253.029 70.06V72.06H258.641V70.06V68.06H253.029V70.06ZM258.641 70.06H256.641V81.65H258.641H260.641V70.06H258.641ZM258.641 81.65V79.65H253.029V81.65V83.65H258.641V81.65ZM253.029 81.65H251.029V86.53H253.029H255.029V81.65H253.029ZM253.029 86.53V88.53H258.641V86.53V84.53H253.029V86.53ZM258.641 86.53H256.641V98.242H258.641H260.641V86.53H258.641ZM258.641 98.242V96.242H253.029V98.242V100.242H258.641V98.242ZM253.029 98.242H251.029V103.732H253.029H255.029V98.242H253.029ZM253.029 103.732V101.732H235.827V103.732V105.732H253.029V103.732ZM236.437 97.632V99.632H252.419V97.632V95.632H236.437V97.632ZM252.419 97.632H254.419V87.14H252.419H250.419V97.632H252.419ZM252.419 87.14V85.14H241.317V87.14V89.14H252.419V87.14ZM241.317 87.14H243.317V81.101H241.317H239.317V87.14H241.317ZM241.317 81.101V83.101H252.419V81.101V79.101H241.317V81.101ZM252.419 81.101H254.419V70.67H252.419H250.419V81.101H252.419ZM252.419 70.67V68.67H236.437V70.67V72.67H252.419V70.67ZM236.437 70.67H234.437V97.632H236.437H238.437V70.67H236.437ZM273.338 103.732H271.338C271.338 104.837 272.233 105.732 273.338 105.732V103.732ZM273.338 97.632V95.632C272.233 95.632 271.338 96.5274 271.338 97.632H273.338ZM278.889 97.632V99.632C279.993 99.632 280.889 98.7366 280.889 97.632H278.889ZM278.889 70.67H280.889C280.889 69.5654 279.993 68.67 278.889 68.67V70.67ZM273.338 70.67H271.338C271.338 71.7746 272.233 72.67 273.338 72.67V70.67ZM273.338 64.509V62.509C272.233 62.509 271.338 63.4044 271.338 64.509H273.338ZM290.601 64.509H292.601C292.601 63.4044 291.705 62.509 290.601 62.509V64.509ZM290.601 70.67V72.67C291.705 72.67 292.601 71.7746 292.601 70.67H290.601ZM284.989 70.67V68.67C283.884 68.67 282.989 69.5654 282.989 70.67H284.989ZM284.989 97.632H282.989C282.989 98.7366 283.884 99.632 284.989 99.632V97.632ZM290.601 97.632H292.601C292.601 96.5274 291.705 95.632 290.601 95.632V97.632ZM290.601 103.732V105.732C291.705 105.732 292.601 104.837 292.601 103.732H290.601ZM273.338 103.732H275.338V97.632H273.338H271.338V103.732H273.338ZM273.338 97.632V99.632H278.889V97.632V95.632H273.338V97.632ZM278.889 97.632H280.889V70.67H278.889H276.889V97.632H278.889ZM278.889 70.67V68.67H273.338V70.67V72.67H278.889V70.67ZM273.338 70.67H275.338V64.509H273.338H271.338V70.67H273.338ZM273.338 64.509V66.509H290.601V64.509V62.509H273.338V64.509ZM290.601 64.509H288.601V70.67H290.601H292.601V64.509H290.601ZM290.601 70.67V68.67H284.989V70.67V72.67H290.601V70.67ZM284.989 70.67H282.989V97.632H284.989H286.989V70.67H284.989ZM284.989 97.632V99.632H290.601V97.632V95.632H284.989V97.632ZM290.601 97.632H288.601V103.732H290.601H292.601V97.632H290.601ZM290.601 103.732V101.732H273.338V103.732V105.732H290.601V103.732ZM305.32 103.732H303.32C303.32 104.837 304.215 105.732 305.32 105.732V103.732ZM305.32 64.509V62.509C304.215 62.509 303.32 63.4044 303.32 64.509H305.32ZM311.481 64.509H313.481C313.481 63.4044 312.586 62.509 311.481 62.509V64.509ZM311.481 70.06H309.481C309.481 71.1646 310.376 72.06 311.481 72.06V70.06ZM316.971 70.06H318.971C318.971 68.9554 318.076 68.06 316.971 68.06V70.06ZM316.971 75.55H314.971C314.971 76.6546 315.866 77.55 316.971 77.55V75.55ZM322.583 75.55H324.583C324.583 74.4454 323.688 73.55 322.583 73.55V75.55ZM322.583 92.081H320.583C320.583 93.1856 321.478 94.081 322.583 94.081V92.081ZM327.463 92.081V94.081C328.568 94.081 329.463 93.1856 329.463 92.081H327.463ZM327.463 64.509V62.509C326.358 62.509 325.463 63.4044 325.463 64.509H327.463ZM333.685 64.509H335.685C335.685 63.4044 334.79 62.509 333.685 62.509V64.509ZM333.685 103.732V105.732C334.79 105.732 335.685 104.837 335.685 103.732H333.685ZM327.463 103.732H325.463C325.463 104.837 326.358 105.732 327.463 105.732V103.732ZM327.463 98.242H329.463C329.463 97.1374 328.568 96.242 327.463 96.242V98.242ZM321.973 98.242H319.973C319.973 99.3466 320.868 100.242 321.973 100.242V98.242ZM321.973 92.691H323.973C323.973 91.5864 323.078 90.691 321.973 90.691V92.691ZM316.361 92.691H314.361C314.361 93.7956 315.256 94.691 316.361 94.691V92.691ZM316.361 76.16H318.361C318.361 75.0554 317.466 74.16 316.361 74.16V76.16ZM311.481 76.16V74.16C310.376 74.16 309.481 75.0554 309.481 76.16H311.481ZM311.481 103.732V105.732C312.586 105.732 313.481 104.837 313.481 103.732H311.481ZM305.32 103.732H307.32V64.509H305.32H303.32V103.732H305.32ZM305.32 64.509V66.509H311.481V64.509V62.509H305.32V64.509ZM311.481 64.509H309.481V70.06H311.481H313.481V64.509H311.481ZM311.481 70.06V72.06H316.971V70.06V68.06H311.481V70.06ZM316.971 70.06H314.971V75.55H316.971H318.971V70.06H316.971ZM316.971 75.55V77.55H322.583V75.55V73.55H316.971V75.55ZM322.583 75.55H320.583V92.081H322.583H324.583V75.55H322.583ZM322.583 92.081V94.081H327.463V92.081V90.081H322.583V92.081ZM327.463 92.081H329.463V64.509H327.463H325.463V92.081H327.463ZM327.463 64.509V66.509H333.685V64.509V62.509H327.463V64.509ZM333.685 64.509H331.685V103.732H333.685H335.685V64.509H333.685ZM333.685 103.732V101.732H327.463V103.732V105.732H333.685V103.732ZM327.463 103.732H329.463V98.242H327.463H325.463V103.732H327.463ZM327.463 98.242V96.242H321.973V98.242V100.242H327.463V98.242ZM321.973 98.242H323.973V92.691H321.973H319.973V98.242H321.973ZM321.973 92.691V90.691H316.361V92.691V94.691H321.973V92.691ZM316.361 92.691H318.361V76.16H316.361H314.361V92.691H316.361ZM316.361 76.16V74.16H311.481V76.16V78.16H316.361V76.16ZM311.481 76.16H309.481V103.732H311.481H313.481V76.16H311.481ZM311.481 103.732V101.732H305.32V103.732V105.732H311.481V103.732ZM348.382 103.732H346.382C346.382 104.837 347.278 105.732 348.382 105.732V103.732ZM348.382 97.632V95.632C347.278 95.632 346.382 96.5274 346.382 97.632H348.382ZM353.933 97.632V99.632C355.038 99.632 355.933 98.7366 355.933 97.632H353.933ZM353.933 70.67H355.933C355.933 69.5654 355.038 68.67 353.933 68.67V70.67ZM348.382 70.67H346.382C346.382 71.7746 347.278 72.67 348.382 72.67V70.67ZM348.382 64.509V62.509C347.278 62.509 346.382 63.4044 346.382 64.509H348.382ZM365.645 64.509H367.645C367.645 63.4044 366.75 62.509 365.645 62.509V64.509ZM365.645 70.67V72.67C366.75 72.67 367.645 71.7746 367.645 70.67H365.645ZM360.033 70.67V68.67C358.929 68.67 358.033 69.5654 358.033 70.67H360.033ZM360.033 97.632H358.033C358.033 98.7366 358.929 99.632 360.033 99.632V97.632ZM365.645 97.632H367.645C367.645 96.5274 366.75 95.632 365.645 95.632V97.632ZM365.645 103.732V105.732C366.75 105.732 367.645 104.837 367.645 103.732H365.645ZM348.382 103.732H350.382V97.632H348.382H346.382V103.732H348.382ZM348.382 97.632V99.632H353.933V97.632V95.632H348.382V97.632ZM353.933 97.632H355.933V70.67H353.933H351.933V97.632H353.933ZM353.933 70.67V68.67H348.382V70.67V72.67H353.933V70.67ZM348.382 70.67H350.382V64.509H348.382H346.382V70.67H348.382ZM348.382 64.509V66.509H365.645V64.509V62.509H348.382V64.509ZM365.645 64.509H363.645V70.67H365.645H367.645V64.509H365.645ZM365.645 70.67V68.67H360.033V70.67V72.67H365.645V70.67ZM360.033 70.67H358.033V97.632H360.033H362.033V70.67H360.033ZM360.033 97.632V99.632H365.645V97.632V95.632H360.033V97.632ZM365.645 97.632H363.645V103.732H365.645H367.645V97.632H365.645ZM365.645 103.732V101.732H348.382V103.732V105.732H365.645V103.732ZM176.133 163.732H174.133C174.133 164.837 175.029 165.732 176.133 165.732V163.732ZM176.133 130.06V128.06C175.029 128.06 174.133 128.955 174.133 130.06H176.133ZM181.684 130.06V132.06C182.789 132.06 183.684 131.165 183.684 130.06H181.684ZM181.684 124.509V122.509C180.58 122.509 179.684 123.404 179.684 124.509H181.684ZM198.886 124.509H200.886C200.886 123.404 199.991 122.509 198.886 122.509V124.509ZM198.886 130.06H196.886C196.886 131.165 197.782 132.06 198.886 132.06V130.06ZM204.498 130.06H206.498C206.498 128.955 205.603 128.06 204.498 128.06V130.06ZM204.498 147.14V149.14C205.603 149.14 206.498 148.245 206.498 147.14H204.498ZM198.886 147.14V145.14C197.782 145.14 196.886 146.035 196.886 147.14H198.886ZM198.886 152.691V154.691C199.991 154.691 200.886 153.796 200.886 152.691H198.886ZM182.294 152.691V150.691C181.19 150.691 180.294 151.586 180.294 152.691H182.294ZM182.294 163.732V165.732C183.399 165.732 184.294 164.837 184.294 163.732H182.294ZM182.294 146.53H180.294C180.294 147.635 181.19 148.53 182.294 148.53V146.53ZM198.276 146.53V148.53C199.381 148.53 200.276 147.635 200.276 146.53H198.276ZM198.276 130.67H200.276C200.276 129.565 199.381 128.67 198.276 128.67V130.67ZM182.294 130.67V128.67C181.19 128.67 180.294 129.565 180.294 130.67H182.294ZM176.133 163.732H178.133V130.06H176.133H174.133V163.732H176.133ZM176.133 130.06V132.06H181.684V130.06V128.06H176.133V130.06ZM181.684 130.06H183.684V124.509H181.684H179.684V130.06H181.684ZM181.684 124.509V126.509H198.886V124.509V122.509H181.684V124.509ZM198.886 124.509H196.886V130.06H198.886H200.886V124.509H198.886ZM198.886 130.06V132.06H204.498V130.06V128.06H198.886V130.06ZM204.498 130.06H202.498V147.14H204.498H206.498V130.06H204.498ZM204.498 147.14V145.14H198.886V147.14V149.14H204.498V147.14ZM198.886 147.14H196.886V152.691H198.886H200.886V147.14H198.886ZM198.886 152.691V150.691H182.294V152.691V154.691H198.886V152.691ZM182.294 152.691H180.294V163.732H182.294H184.294V152.691H182.294ZM182.294 163.732V161.732H176.133V163.732V165.732H182.294V163.732ZM182.294 146.53V148.53H198.276V146.53V144.53H182.294V146.53ZM198.276 146.53H200.276V130.67H198.276H196.276V146.53H198.276ZM198.276 130.67V128.67H182.294V130.67V132.67H198.276V130.67ZM182.294 130.67H180.294V146.53H182.294H184.294V130.67H182.294ZM224.747 163.732H222.747C222.747 164.837 223.642 165.732 224.747 165.732V163.732ZM224.747 158.242H226.747C226.747 157.137 225.851 156.242 224.747 156.242V158.242ZM219.196 158.242H217.196C217.196 159.347 218.091 160.242 219.196 160.242V158.242ZM219.196 124.509V122.509C218.091 122.509 217.196 123.404 217.196 124.509H219.196ZM225.357 124.509H227.357C227.357 123.404 226.461 122.509 225.357 122.509V124.509ZM225.357 157.632H223.357C223.357 158.737 224.252 159.632 225.357 159.632V157.632ZM241.339 157.632V159.632C242.443 159.632 243.339 158.737 243.339 157.632H241.339ZM241.339 124.509V122.509C240.234 122.509 239.339 123.404 239.339 124.509H241.339ZM247.561 124.509H249.561C249.561 123.404 248.665 122.509 247.561 122.509V124.509ZM247.561 158.242V160.242C248.665 160.242 249.561 159.347 249.561 158.242H247.561ZM241.949 158.242V156.242C240.844 156.242 239.949 157.137 239.949 158.242H241.949ZM241.949 163.732V165.732C243.053 165.732 243.949 164.837 243.949 163.732H241.949ZM224.747 163.732H226.747V158.242H224.747H222.747V163.732H224.747ZM224.747 158.242V156.242H219.196V158.242V160.242H224.747V158.242ZM219.196 158.242H221.196V124.509H219.196H217.196V158.242H219.196ZM219.196 124.509V126.509H225.357V124.509V122.509H219.196V124.509ZM225.357 124.509H223.357V157.632H225.357H227.357V124.509H225.357ZM225.357 157.632V159.632H241.339V157.632V155.632H225.357V157.632ZM241.339 157.632H243.339V124.509H241.339H239.339V157.632H241.339ZM241.339 124.509V126.509H247.561V124.509V122.509H241.339V124.509ZM247.561 124.509H245.561V158.242H247.561H249.561V124.509H247.561ZM247.561 158.242V156.242H241.949V158.242V160.242H247.561V158.242ZM241.949 158.242H239.949V163.732H241.949H243.949V158.242H241.949ZM241.949 163.732V161.732H224.747V163.732V165.732H241.949V163.732ZM267.809 163.732H265.809C265.809 164.837 266.704 165.732 267.809 165.732V163.732ZM267.809 158.242H269.809C269.809 157.137 268.913 156.242 267.809 156.242V158.242ZM262.258 158.242H260.258C260.258 159.347 261.153 160.242 262.258 160.242V158.242ZM262.258 146.53V144.53C261.153 144.53 260.258 145.425 260.258 146.53H262.258ZM267.809 146.53V148.53C268.913 148.53 269.809 147.635 269.809 146.53H267.809ZM267.809 141.101V139.101C266.704 139.101 265.809 139.996 265.809 141.101H267.809ZM284.401 141.101V143.101C285.505 143.101 286.401 142.206 286.401 141.101H284.401ZM284.401 130.67H286.401C286.401 129.565 285.505 128.67 284.401 128.67V130.67ZM268.419 130.67V128.67C267.314 128.67 266.419 129.565 266.419 130.67H268.419ZM268.419 136.16V138.16C269.523 138.16 270.419 137.265 270.419 136.16H268.419ZM262.258 136.16H260.258C260.258 137.265 261.153 138.16 262.258 138.16V136.16ZM262.258 124.509V122.509C261.153 122.509 260.258 123.404 260.258 124.509H262.258ZM285.011 124.509H287.011C287.011 123.404 286.115 122.509 285.011 122.509V124.509ZM285.011 130.06H283.011C283.011 131.165 283.906 132.06 285.011 132.06V130.06ZM290.623 130.06H292.623C292.623 128.955 291.727 128.06 290.623 128.06V130.06ZM290.623 141.65V143.65C291.727 143.65 292.623 142.755 292.623 141.65H290.623ZM285.011 141.65V139.65C283.906 139.65 283.011 140.545 283.011 141.65H285.011ZM285.011 147.14V149.14C286.115 149.14 287.011 148.245 287.011 147.14H285.011ZM268.419 147.14V145.14C267.314 145.14 266.419 146.035 266.419 147.14H268.419ZM268.419 157.632H266.419C266.419 158.737 267.314 159.632 268.419 159.632V157.632ZM284.401 157.632V159.632C285.505 159.632 286.401 158.737 286.401 157.632H284.401ZM284.401 152.081V150.081C283.296 150.081 282.401 150.976 282.401 152.081H284.401ZM290.623 152.081H292.623C292.623 150.976 291.727 150.081 290.623 150.081V152.081ZM290.623 163.732V165.732C291.727 165.732 292.623 164.837 292.623 163.732H290.623ZM267.809 163.732H269.809V158.242H267.809H265.809V163.732H267.809ZM267.809 158.242V156.242H262.258V158.242V160.242H267.809V158.242ZM262.258 158.242H264.258V146.53H262.258H260.258V158.242H262.258ZM262.258 146.53V148.53H267.809V146.53V144.53H262.258V146.53ZM267.809 146.53H269.809V141.101H267.809H265.809V146.53H267.809ZM267.809 141.101V143.101H284.401V141.101V139.101H267.809V141.101ZM284.401 141.101H286.401V130.67H284.401H282.401V141.101H284.401ZM284.401 130.67V128.67H268.419V130.67V132.67H284.401V130.67ZM268.419 130.67H266.419V136.16H268.419H270.419V130.67H268.419ZM268.419 136.16V134.16H262.258V136.16V138.16H268.419V136.16ZM262.258 136.16H264.258V124.509H262.258H260.258V136.16H262.258ZM262.258 124.509V126.509H285.011V124.509V122.509H262.258V124.509ZM285.011 124.509H283.011V130.06H285.011H287.011V124.509H285.011ZM285.011 130.06V132.06H290.623V130.06V128.06H285.011V130.06ZM290.623 130.06H288.623V141.65H290.623H292.623V130.06H290.623ZM290.623 141.65V139.65H285.011V141.65V143.65H290.623V141.65ZM285.011 141.65H283.011V147.14H285.011H287.011V141.65H285.011ZM285.011 147.14V145.14H268.419V147.14V149.14H285.011V147.14ZM268.419 147.14H266.419V157.632H268.419H270.419V147.14H268.419ZM268.419 157.632V159.632H284.401V157.632V155.632H268.419V157.632ZM284.401 157.632H286.401V152.081H284.401H282.401V157.632H284.401ZM284.401 152.081V154.081H290.623V152.081V150.081H284.401V152.081ZM290.623 152.081H288.623V163.732H290.623H292.623V152.081H290.623ZM290.623 163.732V161.732H267.809V163.732V165.732H290.623V163.732ZM310.871 163.732H308.871C308.871 164.837 309.766 165.732 310.871 165.732V163.732ZM310.871 158.242H312.871C312.871 157.137 311.976 156.242 310.871 156.242V158.242ZM305.32 158.242H303.32C303.32 159.347 304.215 160.242 305.32 160.242V158.242ZM305.32 146.53V144.53C304.215 144.53 303.32 145.425 303.32 146.53H305.32ZM310.871 146.53V148.53C311.976 148.53 312.871 147.635 312.871 146.53H310.871ZM310.871 141.101V139.101C309.766 139.101 308.871 139.996 308.871 141.101H310.871ZM327.463 141.101V143.101C328.568 143.101 329.463 142.206 329.463 141.101H327.463ZM327.463 130.67H329.463C329.463 129.565 328.568 128.67 327.463 128.67V130.67ZM311.481 130.67V128.67C310.376 128.67 309.481 129.565 309.481 130.67H311.481ZM311.481 136.16V138.16C312.586 138.16 313.481 137.265 313.481 136.16H311.481ZM305.32 136.16H303.32C303.32 137.265 304.215 138.16 305.32 138.16V136.16ZM305.32 124.509V122.509C304.215 122.509 303.32 123.404 303.32 124.509H305.32ZM328.073 124.509H330.073C330.073 123.404 329.178 122.509 328.073 122.509V124.509ZM328.073 130.06H326.073C326.073 131.165 326.968 132.06 328.073 132.06V130.06ZM333.685 130.06H335.685C335.685 128.955 334.79 128.06 333.685 128.06V130.06ZM333.685 141.65V143.65C334.79 143.65 335.685 142.755 335.685 141.65H333.685ZM328.073 141.65V139.65C326.968 139.65 326.073 140.545 326.073 141.65H328.073ZM328.073 147.14V149.14C329.178 149.14 330.073 148.245 330.073 147.14H328.073ZM311.481 147.14V145.14C310.376 145.14 309.481 146.035 309.481 147.14H311.481ZM311.481 157.632H309.481C309.481 158.737 310.376 159.632 311.481 159.632V157.632ZM327.463 157.632V159.632C328.568 159.632 329.463 158.737 329.463 157.632H327.463ZM327.463 152.081V150.081C326.358 150.081 325.463 150.976 325.463 152.081H327.463ZM333.685 152.081H335.685C335.685 150.976 334.79 150.081 333.685 150.081V152.081ZM333.685 163.732V165.732C334.79 165.732 335.685 164.837 335.685 163.732H333.685ZM310.871 163.732H312.871V158.242H310.871H308.871V163.732H310.871ZM310.871 158.242V156.242H305.32V158.242V160.242H310.871V158.242ZM305.32 158.242H307.32V146.53H305.32H303.32V158.242H305.32ZM305.32 146.53V148.53H310.871V146.53V144.53H305.32V146.53ZM310.871 146.53H312.871V141.101H310.871H308.871V146.53H310.871ZM310.871 141.101V143.101H327.463V141.101V139.101H310.871V141.101ZM327.463 141.101H329.463V130.67H327.463H325.463V141.101H327.463ZM327.463 130.67V128.67H311.481V130.67V132.67H327.463V130.67ZM311.481 130.67H309.481V136.16H311.481H313.481V130.67H311.481ZM311.481 136.16V134.16H305.32V136.16V138.16H311.481V136.16ZM305.32 136.16H307.32V124.509H305.32H303.32V136.16H305.32ZM305.32 124.509V126.509H328.073V124.509V122.509H305.32V124.509ZM328.073 124.509H326.073V130.06H328.073H330.073V124.509H328.073ZM328.073 130.06V132.06H333.685V130.06V128.06H328.073V130.06ZM333.685 130.06H331.685V141.65H333.685H335.685V130.06H333.685ZM333.685 141.65V139.65H328.073V141.65V143.65H333.685V141.65ZM328.073 141.65H326.073V147.14H328.073H330.073V141.65H328.073ZM328.073 147.14V145.14H311.481V147.14V149.14H328.073V147.14ZM311.481 147.14H309.481V157.632H311.481H313.481V147.14H311.481ZM311.481 157.632V159.632H327.463V157.632V155.632H311.481V157.632ZM327.463 157.632H329.463V152.081H327.463H325.463V157.632H327.463ZM327.463 152.081V154.081H333.685V152.081V150.081H327.463V152.081ZM333.685 152.081H331.685V163.732H333.685H335.685V152.081H333.685ZM333.685 163.732V161.732H310.871V163.732V165.732H333.685V163.732ZM353.933 163.732H351.933C351.933 164.837 352.829 165.732 353.933 165.732V163.732ZM353.933 158.242H355.933C355.933 157.137 355.038 156.242 353.933 156.242V158.242ZM348.382 158.242H346.382C346.382 159.347 347.278 160.242 348.382 160.242V158.242ZM348.382 124.509V122.509C347.278 122.509 346.382 123.404 346.382 124.509H348.382ZM354.543 124.509H356.543C356.543 123.404 355.648 122.509 354.543 122.509V124.509ZM354.543 157.632H352.543C352.543 158.737 353.439 159.632 354.543 159.632V157.632ZM370.525 157.632V159.632C371.63 159.632 372.525 158.737 372.525 157.632H370.525ZM370.525 152.081V150.081C369.421 150.081 368.525 150.976 368.525 152.081H370.525ZM376.747 152.081H378.747C378.747 150.976 377.852 150.081 376.747 150.081V152.081ZM376.747 158.242V160.242C377.852 160.242 378.747 159.347 378.747 158.242H376.747ZM371.135 158.242V156.242C370.031 156.242 369.135 157.137 369.135 158.242H371.135ZM371.135 163.732V165.732C372.24 165.732 373.135 164.837 373.135 163.732H371.135ZM353.933 163.732H355.933V158.242H353.933H351.933V163.732H353.933ZM353.933 158.242V156.242H348.382V158.242V160.242H353.933V158.242ZM348.382 158.242H350.382V124.509H348.382H346.382V158.242H348.382ZM348.382 124.509V126.509H354.543V124.509V122.509H348.382V124.509ZM354.543 124.509H352.543V157.632H354.543H356.543V124.509H354.543ZM354.543 157.632V159.632H370.525V157.632V155.632H354.543V157.632ZM370.525 157.632H372.525V152.081H370.525H368.525V157.632H370.525ZM370.525 152.081V154.081H376.747V152.081V150.081H370.525V152.081ZM376.747 152.081H374.747V158.242H376.747H378.747V152.081H376.747ZM376.747 158.242V156.242H371.135V158.242V160.242H376.747V158.242ZM371.135 158.242H369.135V163.732H371.135H373.135V158.242H371.135ZM371.135 163.732V161.732H353.933V163.732V165.732H371.135V163.732ZM396.995 163.732H394.995C394.995 164.837 395.891 165.732 396.995 165.732V163.732ZM396.995 158.242H398.995C398.995 157.137 398.1 156.242 396.995 156.242V158.242ZM391.444 158.242H389.444C389.444 159.347 390.34 160.242 391.444 160.242V158.242ZM391.444 130.06V128.06C390.34 128.06 389.444 128.955 389.444 130.06H391.444ZM396.995 130.06V132.06C398.1 132.06 398.995 131.165 398.995 130.06H396.995ZM396.995 124.509V122.509C395.891 122.509 394.995 123.404 394.995 124.509H396.995ZM414.197 124.509H416.197C416.197 123.404 415.302 122.509 414.197 122.509V124.509ZM414.197 130.06H412.197C412.197 131.165 413.093 132.06 414.197 132.06V130.06ZM419.809 130.06H421.809C421.809 128.955 420.914 128.06 419.809 128.06V130.06ZM419.809 136.16V138.16C420.914 138.16 421.809 137.265 421.809 136.16H419.809ZM413.587 136.16H411.587C411.587 137.265 412.483 138.16 413.587 138.16V136.16ZM413.587 130.67H415.587C415.587 129.565 414.692 128.67 413.587 128.67V130.67ZM397.605 130.67V128.67C396.501 128.67 395.605 129.565 395.605 130.67H397.605ZM397.605 141.101H395.605C395.605 142.206 396.501 143.101 397.605 143.101V141.101ZM408.707 141.101H410.707C410.707 139.996 409.812 139.101 408.707 139.101V141.101ZM408.707 147.14V149.14C409.812 149.14 410.707 148.245 410.707 147.14H408.707ZM397.605 147.14V145.14C396.501 145.14 395.605 146.035 395.605 147.14H397.605ZM397.605 157.632H395.605C395.605 158.737 396.501 159.632 397.605 159.632V157.632ZM413.587 157.632V159.632C414.692 159.632 415.587 158.737 415.587 157.632H413.587ZM413.587 152.081V150.081C412.483 150.081 411.587 150.976 411.587 152.081H413.587ZM419.809 152.081H421.809C421.809 150.976 420.914 150.081 419.809 150.081V152.081ZM419.809 158.242V160.242C420.914 160.242 421.809 159.347 421.809 158.242H419.809ZM414.197 158.242V156.242C413.093 156.242 412.197 157.137 412.197 158.242H414.197ZM414.197 163.732V165.732C415.302 165.732 416.197 164.837 416.197 163.732H414.197ZM396.995 163.732H398.995V158.242H396.995H394.995V163.732H396.995ZM396.995 158.242V156.242H391.444V158.242V160.242H396.995V158.242ZM391.444 158.242H393.444V130.06H391.444H389.444V158.242H391.444ZM391.444 130.06V132.06H396.995V130.06V128.06H391.444V130.06ZM396.995 130.06H398.995V124.509H396.995H394.995V130.06H396.995ZM396.995 124.509V126.509H414.197V124.509V122.509H396.995V124.509ZM414.197 124.509H412.197V130.06H414.197H416.197V124.509H414.197ZM414.197 130.06V132.06H419.809V130.06V128.06H414.197V130.06ZM419.809 130.06H417.809V136.16H419.809H421.809V130.06H419.809ZM419.809 136.16V134.16H413.587V136.16V138.16H419.809V136.16ZM413.587 136.16H415.587V130.67H413.587H411.587V136.16H413.587ZM413.587 130.67V128.67H397.605V130.67V132.67H413.587V130.67ZM397.605 130.67H395.605V141.101H397.605H399.605V130.67H397.605ZM397.605 141.101V143.101H408.707V141.101V139.101H397.605V141.101ZM408.707 141.101H406.707V147.14H408.707H410.707V141.101H408.707ZM408.707 147.14V145.14H397.605V147.14V149.14H408.707V147.14ZM397.605 147.14H395.605V157.632H397.605H399.605V147.14H397.605ZM397.605 157.632V159.632H413.587V157.632V155.632H397.605V157.632ZM413.587 157.632H415.587V152.081H413.587H411.587V157.632H413.587ZM413.587 152.081V154.081H419.809V152.081V150.081H413.587V152.081ZM419.809 152.081H417.809V158.242H419.809H421.809V152.081H419.809ZM419.809 158.242V156.242H414.197V158.242V160.242H419.809V158.242ZM414.197 158.242H412.197V163.732H414.197H416.197V158.242H414.197ZM414.197 163.732V161.732H396.995V163.732V165.732H414.197V163.732Z" fill="black" mask="url(#path-69-outside-1_80_7751)"/>
</g>
</g>
<defs>
<filter id="filter0_d_80_7751" x="174.133" y="62.509" width="251.676" height="108.223" filterUnits="userSpaceOnUse" color-interpolation-filters="sRGB">
<feFlood flood-opacity="0" result="BackgroundImageFix"/>
<feColorMatrix in="SourceAlpha" type="matrix" values="0 0 0 0 0 0 0 0 0 0 0 0 0 0 0 0 0 0 127 0" result="hardAlpha"/>
<feOffset dx="4" dy="5"/>
<feComposite in2="hardAlpha" operator="out"/>
<feColorMatrix type="matrix" values="0 0 0 0 0 0 0 0 0 0 0 0 0 0 0 0 0 0 1 0"/>
<feBlend mode="normal" in2="BackgroundImageFix" result="effect1_dropShadow_80_7751"/>
<feBlend mode="normal" in="SourceGraphic" in2="effect1_dropShadow_80_7751" result="shape"/>
</filter>
<clipPath id="clip0_80_7751">
<rect width="595" height="225" rx="24" fill="white"/>
</clipPath>
</defs>
</svg>
