<svg width="595" height="226" viewBox="0 0 595 226" fill="none" xmlns="http://www.w3.org/2000/svg">
<g clip-path="url(#clip0_80_9193)">
<rect width="595" height="225.33" rx="24" fill="#F1F4F6"/>
<path d="M209.436 72.4177H207.747C202.387 72.4177 198.349 73.5924 196 76.2354V58.4683H240.124V76.2354C237.775 73.5924 233.737 72.4177 228.377 72.4177H226.689V109.861H209.436V72.4177Z" fill="black"/>
<path d="M258.259 92.9748L241.226 58.4683H259.874L267.362 75.6481L274.924 58.4683H293.426L267.95 109.861H249.595L258.259 92.9748Z" fill="black"/>
<path d="M294.899 58.4683H319.715C333.958 58.4683 341.593 64.7822 341.593 75.3544C341.593 85.0456 335.059 91.2862 321.624 95.0305L312.153 97.6735V109.861H294.899V58.4683ZM316.479 82.9899C321.839 81.7418 323.968 80.1266 323.968 77.2633C323.968 73.8861 322.059 72.4177 317.654 72.4177H312.148V84.0178L316.479 82.9899Z" fill="black"/>
<path d="M343.062 84.1647C343.062 68.7469 354.295 57 371.401 57C388.507 57 399.74 68.7469 399.74 84.1647C399.74 99.5825 388.507 111.329 371.401 111.329C354.295 111.329 343.062 99.5825 343.062 84.1647ZM381.968 84.1647C381.968 76.9697 377.71 71.9773 371.396 71.9773C365.082 71.9773 360.824 76.9697 360.824 84.1647C360.824 91.3597 365.082 96.3521 371.396 96.3521C377.71 96.3521 381.968 91.3597 381.968 84.1647Z" fill="black"/>
<path d="M216.082 131.152H214.394C209.034 131.152 204.996 132.327 202.647 134.97V117.203H246.771V134.97C244.422 132.327 240.384 131.152 235.024 131.152H233.336V168.596H216.082V131.152Z" fill="black"/>
<path d="M250.075 117.203H276.285C289.794 117.203 296.769 122.856 296.769 133.208C296.769 140.109 293.686 145.175 285.169 148.846L294.787 168.596H276.065L267.328 147.378V168.596H250.075V117.203ZM271.66 141.725C277.02 140.403 279.149 138.861 279.149 135.998C279.149 132.621 277.24 131.152 272.835 131.152H267.328V142.826L271.66 141.725Z" fill="black"/>
<path d="M320.703 117.203H341.994V168.596H325.108V155.747H314.169L310.645 168.596H293.098L304.257 131.593C307.634 120.36 311.305 117.203 320.703 117.203ZM325.108 143.266V129.757H324.3C321.731 129.757 321.217 130.345 320.042 134.603L317.619 143.266H325.108Z" fill="black"/>
<path d="M346.399 117.203H371.215C385.458 117.203 393.093 123.517 393.093 134.089C393.093 143.78 386.559 150.021 373.124 153.765L363.653 156.408V168.596H346.399V117.203ZM367.984 141.725C373.344 140.476 375.473 138.861 375.473 135.998C375.473 132.621 373.564 131.152 369.159 131.152H363.653V142.752L367.984 141.725Z" fill="black"/>
<path opacity="0.5" d="M16.8364 22.3776L19.4091 21.3456L20.1328 23.1499L17.56 24.1818L16.8364 22.3776ZM11.9973 19.8385L13.6847 19.1617L14.7233 21.7512C15.0762 22.631 15.3612 23.5188 15.5782 24.4144C15.7952 25.3099 15.9141 26.1867 15.935 27.0446C15.967 27.898 15.8808 28.7148 15.6766 29.4949C15.479 30.2594 15.1442 30.9561 14.6724 31.5849L12.6658 30.4504C13.1065 29.8728 13.4212 29.2552 13.61 28.5977C13.7988 27.9402 13.8951 27.2615 13.8989 26.5618C13.9027 25.8621 13.8252 25.1692 13.6663 24.483C13.5141 23.7812 13.304 23.0962 13.036 22.428L11.9973 19.8385ZM12.4818 19.6442L14.1357 18.9808L15.1342 21.47C15.3888 22.1049 15.6857 22.7163 16.025 23.3042C16.3754 23.8877 16.7703 24.421 17.2098 24.9042C17.6492 25.3873 18.1376 25.7991 18.675 26.1395C19.2234 26.4755 19.8342 26.7089 20.5073 26.8397L19.9847 29.0663C19.2313 28.9289 18.5269 28.6555 17.8714 28.2461C17.2226 27.8211 16.6282 27.2902 16.0883 26.6534C15.5485 26.0166 15.0598 25.314 14.6223 24.5456C14.196 23.7728 13.8153 22.9687 13.4802 22.1334L12.4818 19.6442ZM19.8244 15.1282L21.9461 14.2772L28.1511 29.7472L26.0294 30.5982L19.8244 15.1282ZM16.7841 16.6385L18.8557 15.8076L24.6854 30.3421L22.6139 31.173L16.7841 16.6385ZM32.6061 16.4402L34.8281 15.549L35.9404 18.3223L33.7185 19.2135L32.6061 16.4402ZM27.4927 20.6633L41.4926 15.048L42.1961 16.8022L28.1963 22.4175L27.4927 20.6633ZM35.5046 20.4753C37.1863 19.8007 38.5966 19.513 39.7354 19.6122C40.8808 19.6958 41.63 20.1776 41.9829 21.0574C42.3314 21.9261 42.1205 22.7865 41.3503 23.6384C40.5957 24.4971 39.3775 25.2637 37.6957 25.9382C36.014 26.6128 34.6037 26.9004 33.4649 26.8012C32.3306 26.7132 31.5892 26.2348 31.2408 25.3661C30.8879 24.4862 31.091 23.6225 31.85 22.775C32.6046 21.9164 33.8228 21.1498 35.5046 20.4753ZM36.1746 22.1459C35.1389 22.5613 34.395 22.9631 33.943 23.3513C33.4865 23.7283 33.332 24.1006 33.4794 24.4681C33.6268 24.8357 33.998 25.0036 34.593 24.9718C35.1834 24.9289 35.9966 24.6997 37.0323 24.2843C38.0793 23.8644 38.8254 23.4681 39.2707 23.0956C39.7227 22.7074 39.875 22.3296 39.7276 21.962C39.5801 21.5945 39.2112 21.4322 38.6207 21.4751C38.0369 21.5024 37.2216 21.726 36.1746 22.1459ZM30.5869 12.518L32.5582 11.7273L32.7056 12.0949C32.8933 12.5626 32.9884 13.0417 32.9911 13.5319C32.9938 14.0221 32.9018 14.518 32.7151 15.0196C32.535 15.5055 32.2581 15.9916 31.8842 16.4777C31.5103 16.9638 31.0383 17.4311 30.4683 17.8795C29.8938 18.3168 29.2268 18.7331 28.4673 19.1282L27.0019 17.699C27.659 17.3708 28.2224 17.0349 28.6923 16.6913C29.1688 16.3321 29.5584 15.9819 29.8612 15.6406C30.175 15.2949 30.4098 14.9616 30.5655 14.6406C30.7278 14.3039 30.8211 13.9885 30.8454 13.6944C30.8696 13.4002 30.8326 13.1306 30.7343 12.8856L30.5869 12.518ZM31.6728 12.0825L33.6274 11.2985L33.7748 11.666C33.8731 11.911 34.0349 12.1371 34.2601 12.3441C34.4809 12.54 34.7585 12.7002 35.0929 12.8246C35.4384 12.9446 35.844 13.0211 36.3098 13.0541C36.7755 13.0871 37.2992 13.071 37.8807 13.0058C38.4689 12.9251 39.1139 12.7763 39.8156 12.5594L39.744 14.6051C38.9108 14.8488 38.1355 15.0111 37.4181 15.092C36.7073 15.1573 36.051 15.149 35.4493 15.0671C34.8431 14.9741 34.3015 14.8164 33.8244 14.594C33.354 14.356 32.9504 14.0589 32.6136 13.7027C32.2723 13.3354 32.0078 12.9178 31.8202 12.45L31.6728 12.0825ZM26.0653 13.3813L37.5258 8.78456L38.2293 10.5387L26.7689 15.1355L26.0653 13.3813ZM51.5637 2.39763L53.6854 1.54662L59.8903 17.0166L57.7686 17.8676L51.5637 2.39763ZM51.901 9.18596L54.4738 8.15403L55.1907 9.9416L52.618 10.9735L51.901 9.18596ZM48.2127 4.052L50.2676 3.2278L56.0772 17.7121L54.0223 18.5363L48.2127 4.052ZM44.9124 16.857L45.9816 16.4281C46.6275 16.169 47.2379 15.9177 47.8125 15.6743C48.3828 15.4197 48.9407 15.1507 49.4864 14.8672C50.0387 14.5681 50.5955 14.2478 51.1567 13.9063L52.0642 15.6369C51.4852 15.9984 50.9139 16.331 50.3504 16.6346C49.7869 16.9381 49.209 17.2217 48.6165 17.4852C48.0195 17.7376 47.3869 17.9978 46.7187 18.2658L45.6495 18.6947L44.9124 16.857ZM41.5619 8.50384L47.2588 6.21886L47.9758 8.00642L44.4675 9.4136L47.456 16.8646L45.2675 17.7424L41.5619 8.50384ZM66.3207 -3.50198L68.5426 -4.39319L72.4425 5.32985L70.2206 6.22106L66.3207 -3.50198ZM69.3555 -0.142276L72.0786 -1.23451L72.8023 0.569763L70.0792 1.662L69.3555 -0.142276ZM67.3373 7.59088C68.4287 7.15309 69.409 6.88922 70.2779 6.79926C71.158 6.70484 71.8924 6.77879 72.4809 7.02113C73.0805 7.25899 73.4965 7.6675 73.7288 8.24665C73.9611 8.8258 73.9427 9.40853 73.6736 9.99484C73.4201 10.5878 72.9427 11.1543 72.2413 11.6942C71.551 12.2296 70.6601 12.7163 69.5686 13.1541C68.4883 13.5874 67.5081 13.8513 66.628 13.9457C65.759 14.0356 65.0225 13.9561 64.4183 13.7071C63.8298 13.4648 63.4194 13.054 63.1871 12.4749C62.9548 11.8957 62.9677 11.3152 63.2256 10.7334C63.4947 10.1471 63.9744 9.5862 64.6646 9.05074C65.3661 8.51082 66.2569 8.0242 67.3373 7.59088ZM68.0141 9.27821C67.0228 9.67579 66.3012 10.0687 65.8492 10.4568C65.4084 10.8405 65.2616 11.2161 65.4091 11.5837C65.561 11.9623 65.931 12.1436 66.5193 12.1274C67.1142 12.0957 67.9073 11.881 68.8986 11.4834C69.9009 11.0814 70.6225 10.6885 71.0634 10.3048C71.4998 9.90999 71.642 9.52324 71.4901 9.14456C71.3427 8.77702 70.9771 8.6069 70.3933 8.63419C69.8095 8.66149 69.0164 8.87616 68.0141 9.27821ZM62.0936 4.865L64.3156 3.97379L65.2671 6.34608L63.0451 7.23729L62.0936 4.865ZM60.1092 9.53972L59.1752 7.93619C60.0662 7.57881 61.0329 7.18459 62.0754 6.75354C63.1245 6.30688 64.1836 5.83681 65.2528 5.34333C66.3286 4.83425 67.3442 4.30406 68.2996 3.75276L69.0765 5.20602C68.1055 5.81527 67.0921 6.38334 66.0364 6.91023C64.9806 7.43712 63.9394 7.91943 62.9125 8.35716C61.8968 8.79041 60.9624 9.1846 60.1092 9.53972ZM61.0721 -0.873139C61.8294 -1.17691 62.5435 -1.31463 63.2142 -1.28629C63.8917 -1.27356 64.4868 -1.11146 64.9996 -0.799975C65.5124 -0.488492 65.885 -0.0431753 66.1173 0.535975C66.354 1.12626 66.3947 1.71116 66.2393 2.29068C66.0793 2.85906 65.7612 3.38748 65.2848 3.87594C64.8151 4.34879 64.2015 4.7371 63.4442 5.04087C62.6868 5.34465 61.9694 5.49017 61.292 5.47744C60.6101 5.45357 60.015 5.29146 59.5066 4.99112C58.9938 4.67963 58.619 4.22875 58.3823 3.63846C58.15 3.05931 58.1115 2.47998 58.267 1.90046C58.4224 1.32095 58.7406 0.792526 59.2214 0.315205C59.6978 -0.173253 60.3147 -0.569367 61.0721 -0.873139ZM61.722 0.747368C61.1874 0.961794 60.8 1.25296 60.5597 1.62086C60.3149 1.97763 60.2796 2.3732 60.4538 2.80756C60.57 3.09713 60.7429 3.31869 60.9726 3.47223C61.2089 3.61016 61.4808 3.67564 61.7883 3.66867C62.107 3.65722 62.4445 3.58003 62.8009 3.43707C63.1573 3.29412 63.449 3.11892 63.6761 2.91147C63.9032 2.70402 64.049 2.47102 64.1133 2.21247C64.1844 1.93832 64.1618 1.65645 64.0457 1.36688C63.8715 0.932516 63.5726 0.670968 63.1491 0.582235C62.7323 0.477897 62.2566 0.532941 61.722 0.747368Z" fill="#222729"/>
<path opacity="0.5" d="M385.893 22.3776L388.466 21.3456L389.189 23.1499L386.617 24.1818L385.893 22.3776ZM381.054 19.8385L382.741 19.1617L383.78 21.7512C384.133 22.631 384.418 23.5188 384.635 24.4144C384.852 25.3099 384.971 26.1867 384.992 27.0446C385.024 27.898 384.937 28.7148 384.733 29.4949C384.536 30.2594 384.201 30.9561 383.729 31.5849L381.722 30.4504C382.163 29.8728 382.478 29.2552 382.667 28.5977C382.855 27.9402 382.952 27.2615 382.956 26.5618C382.959 25.8621 382.882 25.1692 382.723 24.483C382.571 23.7812 382.361 23.0962 382.093 22.428L381.054 19.8385ZM381.538 19.6442L383.192 18.9808L384.191 21.47C384.445 22.1049 384.742 22.7163 385.082 23.3042C385.432 23.8877 385.827 24.421 386.266 24.9042C386.706 25.3873 387.194 25.7991 387.732 26.1395C388.28 26.4755 388.891 26.7089 389.564 26.8397L389.041 29.0663C388.288 28.9289 387.584 28.6555 386.928 28.2461C386.279 27.8211 385.685 27.2902 385.145 26.6534C384.605 26.0166 384.116 25.314 383.679 24.5456C383.253 23.7728 382.872 22.9687 382.537 22.1334L381.538 19.6442ZM388.881 15.1282L391.003 14.2772L397.208 29.7472L395.086 30.5982L388.881 15.1282ZM385.841 16.6385L387.912 15.8076L393.742 30.3421L391.671 31.173L385.841 16.6385ZM401.663 16.4402L403.885 15.549L404.997 18.3223L402.775 19.2135L401.663 16.4402ZM396.549 20.6633L410.549 15.048L411.253 16.8022L397.253 22.4175L396.549 20.6633ZM404.561 20.4753C406.243 19.8007 407.653 19.513 408.792 19.6122C409.937 19.6958 410.687 20.1776 411.04 21.0574C411.388 21.9261 411.177 22.7865 410.407 23.6384C409.652 24.4971 408.434 25.2637 406.752 25.9382C405.071 26.6128 403.66 26.9004 402.522 26.8012C401.387 26.7132 400.646 26.2348 400.297 25.3661C399.945 24.4862 400.148 23.6225 400.907 22.775C401.661 21.9164 402.879 21.1498 404.561 20.4753ZM405.231 22.1459C404.195 22.5613 403.452 22.9631 403 23.3513C402.543 23.7283 402.389 24.1006 402.536 24.4681C402.683 24.8357 403.055 25.0036 403.65 24.9718C404.24 24.9289 405.053 24.6997 406.089 24.2843C407.136 23.8644 407.882 23.4681 408.327 23.0956C408.779 22.7074 408.932 22.3296 408.784 21.962C408.637 21.5945 408.268 21.4322 407.677 21.4751C407.094 21.5024 406.278 21.726 405.231 22.1459ZM399.644 12.518L401.615 11.7273L401.762 12.0949C401.95 12.5626 402.045 13.0417 402.048 13.5319C402.05 14.0221 401.958 14.518 401.772 15.0196C401.592 15.5055 401.315 15.9916 400.941 16.4777C400.567 16.9638 400.095 17.4311 399.525 17.8795C398.95 18.3168 398.283 18.7331 397.524 19.1282L396.059 17.699C396.716 17.3708 397.279 17.0349 397.749 16.6913C398.225 16.3321 398.615 15.9819 398.918 15.6406C399.232 15.2949 399.466 14.9616 399.622 14.6406C399.784 14.3039 399.878 13.9885 399.902 13.6944C399.926 13.4002 399.889 13.1306 399.791 12.8856L399.644 12.518ZM400.729 12.0825L402.684 11.2985L402.831 11.666C402.93 11.911 403.092 12.1371 403.317 12.3441C403.538 12.54 403.815 12.7002 404.15 12.8246C404.495 12.9446 404.901 13.0211 405.366 13.0541C405.832 13.0871 406.356 13.071 406.937 13.0058C407.526 12.9251 408.171 12.7763 408.872 12.5594L408.801 14.6051C407.967 14.8488 407.192 15.0111 406.475 15.092C405.764 15.1573 405.108 15.149 404.506 15.0671C403.9 14.9741 403.358 14.8164 402.881 14.594C402.411 14.356 402.007 14.0589 401.67 13.7027C401.329 13.3354 401.064 12.9178 400.877 12.45L400.729 12.0825ZM395.122 13.3813L406.582 8.78456L407.286 10.5387L395.825 15.1355L395.122 13.3813ZM420.62 2.39763L422.742 1.54662L428.947 17.0166L426.825 17.8676L420.62 2.39763ZM420.958 9.18596L423.53 8.15403L424.247 9.9416L421.675 10.9735L420.958 9.18596ZM417.269 4.052L419.324 3.2278L425.134 17.7121L423.079 18.5363L417.269 4.052ZM413.969 16.857L415.038 16.4281C415.684 16.169 416.295 15.9177 416.869 15.6743C417.439 15.4197 417.997 15.1507 418.543 14.8672C419.095 14.5681 419.652 14.2478 420.213 13.9063L421.121 15.6369C420.542 15.9984 419.971 16.331 419.407 16.6346C418.844 16.9381 418.266 17.2217 417.673 17.4852C417.076 17.7376 416.444 17.9978 415.775 18.2658L414.706 18.6947L413.969 16.857ZM410.619 8.50384L416.315 6.21886L417.032 8.00642L413.524 9.4136L416.513 16.8646L414.324 17.7424L410.619 8.50384ZM435.377 -3.50198L437.599 -4.39319L441.499 5.32985L439.277 6.22106L435.377 -3.50198ZM438.412 -0.142276L441.135 -1.23451L441.859 0.569763L439.136 1.662L438.412 -0.142276ZM436.394 7.59088C437.485 7.15309 438.466 6.88922 439.335 6.79926C440.215 6.70484 440.949 6.77879 441.538 7.02113C442.137 7.25899 442.553 7.6675 442.785 8.24665C443.018 8.8258 442.999 9.40853 442.73 9.99484C442.477 10.5878 441.999 11.1543 441.298 11.6942C440.608 12.2296 439.717 12.7163 438.625 13.1541C437.545 13.5874 436.565 13.8513 435.685 13.9457C434.816 14.0356 434.079 13.9561 433.475 13.7071C432.886 13.4648 432.476 13.054 432.244 12.4749C432.011 11.8957 432.024 11.3152 432.282 10.7334C432.551 10.1471 433.031 9.5862 433.721 9.05074C434.423 8.51082 435.314 8.0242 436.394 7.59088ZM437.071 9.27821C436.079 9.67579 435.358 10.0687 434.906 10.4568C434.465 10.8405 434.318 11.2161 434.466 11.5837C434.618 11.9623 434.988 12.1436 435.576 12.1274C436.171 12.0957 436.964 11.881 437.955 11.4834C438.958 11.0814 439.679 10.6885 440.12 10.3048C440.556 9.90999 440.699 9.52324 440.547 9.14456C440.399 8.77702 440.034 8.6069 439.45 8.63419C438.866 8.66149 438.073 8.87616 437.071 9.27821ZM431.15 4.865L433.372 3.97379L434.324 6.34608L432.102 7.23729L431.15 4.865ZM429.166 9.53972L428.232 7.93619C429.123 7.57881 430.09 7.18459 431.132 6.75354C432.181 6.30688 433.24 5.83681 434.309 5.34333C435.385 4.83425 436.401 4.30406 437.356 3.75276L438.133 5.20602C437.162 5.81527 436.149 6.38334 435.093 6.91023C434.037 7.43712 432.996 7.91943 431.969 8.35716C430.953 8.79041 430.019 9.1846 429.166 9.53972ZM430.129 -0.873139C430.886 -1.17691 431.6 -1.31463 432.271 -1.28629C432.948 -1.27356 433.543 -1.11146 434.056 -0.799975C434.569 -0.488492 434.942 -0.0431753 435.174 0.535975C435.411 1.12626 435.451 1.71116 435.296 2.29068C435.136 2.85906 434.818 3.38748 434.341 3.87594C433.872 4.34879 433.258 4.7371 432.501 5.04087C431.743 5.34465 431.026 5.49017 430.349 5.47744C429.667 5.45357 429.072 5.29146 428.563 4.99112C428.05 4.67963 427.676 4.22875 427.439 3.63846C427.207 3.05931 427.168 2.47998 427.324 1.90046C427.479 1.32095 427.797 0.792526 428.278 0.315205C428.754 -0.173253 429.371 -0.569367 430.129 -0.873139ZM430.779 0.747368C430.244 0.961794 429.857 1.25296 429.616 1.62086C429.372 1.97763 429.336 2.3732 429.51 2.80756C429.627 3.09713 429.8 3.31869 430.029 3.47223C430.266 3.61016 430.537 3.67564 430.845 3.66867C431.164 3.65722 431.501 3.58003 431.858 3.43707C432.214 3.29412 432.506 3.11892 432.733 2.91147C432.96 2.70402 433.106 2.47102 433.17 2.21247C433.241 1.93832 433.218 1.65645 433.102 1.36688C432.928 0.932516 432.629 0.670968 432.206 0.582235C431.789 0.477897 431.313 0.532941 430.779 0.747368Z" fill="#222729"/>
<path opacity="0.5" d="M116.75 54.5833L119.346 53.6091L120.029 55.429L117.434 56.4033L116.75 54.5833ZM111.969 51.9368L113.671 51.2979L114.652 53.9099C114.985 54.7974 115.25 55.6913 115.447 56.5915C115.644 57.4917 115.743 58.3709 115.745 59.229C115.758 60.083 115.654 60.8976 115.432 61.673C115.217 62.4329 114.867 63.1219 114.382 63.74L112.401 62.561C112.854 61.9934 113.183 61.383 113.386 60.7299C113.589 60.0767 113.701 59.4004 113.72 58.701C113.74 58.0015 113.678 57.307 113.534 56.6175C113.398 55.9124 113.203 55.2229 112.95 54.5488L111.969 51.9368ZM112.458 51.7534L114.126 51.1271L115.069 53.638C115.309 54.2783 115.593 54.8962 115.919 55.4916C116.256 56.0828 116.639 56.6248 117.067 57.1176C117.496 57.6104 117.975 58.033 118.505 58.3853C119.045 58.7335 119.651 58.9804 120.321 59.1263L119.749 61.3407C118.999 61.1864 118.3 60.8974 117.654 60.4734C117.015 60.034 116.433 59.49 115.907 58.8413C115.382 58.1926 114.909 57.4793 114.489 56.7014C114.08 55.9192 113.717 55.1069 113.401 54.2643L112.458 51.7534ZM119.9 47.4024L122.04 46.599L127.898 62.2036L125.758 63.007L119.9 47.4024ZM116.826 48.8445L118.916 48.0601L124.42 62.721L122.33 63.5055L116.826 48.8445ZM130.496 50.2306L132.754 49.3829L133.88 52.3824L131.622 53.2302L130.496 50.2306ZM135.114 48.4972L137.355 47.6558L138.481 50.6554L136.24 51.4968L135.114 48.4972ZM127.455 53.1411L141.577 47.8397L142.241 49.6091L128.119 54.9105L127.455 53.1411ZM135.463 53.115C137.159 52.4782 138.576 52.2221 139.712 52.3467C140.855 52.4558 141.593 52.9541 141.927 53.8417C142.255 54.7179 142.025 55.5734 141.236 56.4079C140.463 57.2495 139.228 57.9887 137.531 58.6255C135.835 59.2624 134.419 59.5185 133.282 59.3939C132.15 59.2805 131.42 58.7857 131.091 57.9094C130.758 57.0219 130.98 56.163 131.758 55.3326C132.531 54.4911 133.766 53.7519 135.463 53.115ZM136.095 54.8002C135.051 55.1924 134.298 55.5775 133.837 55.9555C133.373 56.3222 133.21 56.691 133.349 57.0617C133.488 57.4324 133.856 57.6086 134.451 57.5901C135.042 57.5604 135.86 57.3494 136.905 56.9572C137.961 56.5608 138.716 56.1813 139.17 55.8188C139.63 55.4408 139.791 55.0664 139.652 54.6957C139.512 54.325 139.147 54.1544 138.556 54.1841C137.972 54.1984 137.151 54.4038 136.095 54.8002ZM130.699 44.9826L132.687 44.2361L132.826 44.6068C133.003 45.0787 133.088 45.5597 133.08 46.0499C133.071 46.54 132.968 47.0338 132.77 47.531C132.58 48.0128 132.292 48.4926 131.907 48.9702C131.518 49.4367 131.034 49.8877 130.454 50.3233C129.874 50.7589 129.2 51.1657 128.432 51.5438L126.993 50.0654C127.657 49.7519 128.228 49.4287 128.705 49.0957C129.194 48.7584 129.593 48.4226 129.903 48.0882C130.225 47.7496 130.467 47.4216 130.63 47.1041C130.8 46.7712 130.9 46.458 130.931 46.1644C130.957 45.8596 130.926 45.5893 130.838 45.3533L130.699 44.9826ZM131.794 44.5714L133.766 43.8312L133.905 44.202C133.998 44.4491 134.152 44.6731 134.369 44.8738C134.585 45.0746 134.861 45.2466 135.197 45.3897C135.539 45.5174 135.943 45.6029 136.408 45.6463C136.873 45.6897 137.395 45.6796 137.973 45.6162C138.563 45.5486 139.211 45.4143 139.918 45.2132L139.807 47.2736C138.968 47.4986 138.188 47.6379 137.464 47.6916C136.752 47.741 136.096 47.718 135.497 47.6227C134.897 47.5275 134.359 47.3577 133.883 47.1135C133.418 46.8651 133.021 46.559 132.692 46.1954C132.363 45.8317 132.11 45.414 131.933 44.9421L131.794 44.5714ZM126.159 45.7448L137.719 41.405L138.383 43.1744L126.823 47.5142L126.159 45.7448ZM151.915 35.3835L154.055 34.5801L159.913 50.1847L157.773 50.9882L151.915 35.3835ZM152.101 42.1777L154.696 41.2035L155.373 43.0066L152.778 43.9808L152.101 42.1777ZM148.528 36.9627L150.601 36.1846L156.086 50.7949L154.013 51.5731L148.528 36.9627ZM144.943 49.6908L146.021 49.2859C146.673 49.0413 147.289 48.8037 147.869 48.5732C148.444 48.3314 149.008 48.0749 149.56 47.8036C150.119 47.5169 150.683 47.2091 151.251 46.8802L152.12 48.6306C151.533 48.9792 150.954 49.2989 150.384 49.5898C149.814 49.8808 149.23 50.1513 148.632 50.4015C148.029 50.6405 147.391 50.8865 146.717 51.1396L145.639 51.5445L144.943 49.6908ZM141.78 41.265L147.526 39.1077L148.203 40.9108L144.664 42.2393L147.486 49.7552L145.278 50.5839L141.78 41.265ZM166.8 29.8148L169.041 28.9734L172.723 38.7811L170.482 39.6225L166.8 29.8148ZM169.759 33.2414L172.506 32.2102L173.189 34.0302L170.442 35.0614L169.759 33.2414ZM167.569 40.9276C168.67 40.5143 169.656 40.2723 170.526 40.2018C171.408 40.127 172.141 40.2174 172.724 40.4728C173.318 40.724 173.725 41.1417 173.944 41.7259C174.163 42.3101 174.132 42.8922 173.85 43.4724C173.583 44.0596 173.093 44.6152 172.38 45.1393C171.678 45.6593 170.776 46.1259 169.675 46.5392C168.586 46.9483 167.6 47.1902 166.718 47.265C165.847 47.3355 165.113 47.2396 164.514 46.9771C163.931 46.7217 163.53 46.3019 163.311 45.7177C163.091 45.1335 163.117 44.5535 163.388 43.9775C163.67 43.3974 164.162 42.8473 164.864 42.3274C165.578 41.8033 166.479 41.3367 167.569 40.9276ZM168.208 42.6296C167.208 43.005 166.478 43.3816 166.017 43.7596C165.568 44.1333 165.413 44.5056 165.552 44.8763C165.695 45.2583 166.061 45.4478 166.65 45.4448C167.245 45.4263 168.043 45.2294 169.043 44.854C170.054 44.4744 170.784 44.0978 171.233 43.724C171.679 43.339 171.829 42.9555 171.686 42.5736C171.547 42.2028 171.185 42.0246 170.601 42.0389C170.017 42.0531 169.219 42.25 168.208 42.6296ZM162.387 38.0853L164.629 37.2439L165.527 39.6369L163.286 40.4783L162.387 38.0853ZM160.299 42.7146L159.401 41.0906C160.3 40.7532 161.275 40.3807 162.327 39.973C163.386 39.5499 164.455 39.1036 165.535 38.6341C166.622 38.1491 167.649 37.6417 168.617 37.1119L169.361 38.5821C168.376 39.1696 167.351 39.7149 166.283 40.2181C165.216 40.7213 164.164 41.1802 163.128 41.5949C162.103 42.0054 161.16 42.3786 160.299 42.7146ZM161.494 32.3258C162.258 32.039 162.975 31.9173 163.645 31.9606C164.322 31.9884 164.913 32.1638 165.419 32.4866C165.925 32.8095 166.287 33.263 166.507 33.8472C166.73 34.4426 166.758 35.0283 166.589 35.6042C166.417 36.1689 166.087 36.69 165.6 37.1678C165.12 37.63 164.498 38.0045 163.734 38.2913C162.97 38.5781 162.249 38.7076 161.572 38.6797C160.891 38.6406 160.3 38.4653 159.798 38.1537C159.292 37.8308 158.928 37.3717 158.704 36.7763C158.485 36.1921 158.459 35.612 158.628 35.0361C158.796 34.4602 159.126 33.939 159.617 33.4726C160.105 32.9949 160.73 32.6126 161.494 32.3258ZM162.108 33.9604C161.569 34.1629 161.175 34.4453 160.926 34.8078C160.674 35.159 160.629 35.5537 160.794 35.9918C160.904 36.2839 161.071 36.5093 161.298 36.6679C161.531 36.8111 161.801 36.8826 162.109 36.8825C162.428 36.8782 162.767 36.8085 163.126 36.6736C163.486 36.5386 163.781 36.3699 164.013 36.1676C164.245 35.9653 164.396 35.7356 164.466 35.4785C164.543 35.206 164.527 34.9238 164.417 34.6317C164.253 34.1935 163.96 33.9254 163.538 33.8272C163.124 33.7136 162.647 33.758 162.108 33.9604Z" fill="#222729"/>
<path opacity="0.5" d="M508.837 78.4905L511.433 77.5163L512.116 79.3363L509.521 80.3105L508.837 78.4905ZM504.056 75.8441L505.758 75.2051L506.739 77.8171C507.072 78.7046 507.337 79.5985 507.534 80.4987C507.731 81.3989 507.83 82.2781 507.832 83.1363C507.845 83.9902 507.741 84.8048 507.519 85.5802C507.304 86.3401 506.954 87.0291 506.468 87.6473L504.488 86.4682C504.941 85.9006 505.27 85.2903 505.473 84.6371C505.676 83.9839 505.788 83.3076 505.807 82.6082C505.827 81.9087 505.765 81.2142 505.621 80.5247C505.485 79.8197 505.29 79.1301 505.037 78.4561L504.056 75.8441ZM504.545 75.6606L506.213 75.0343L507.156 77.5452C507.396 78.1856 507.679 78.8034 508.006 79.3988C508.343 79.99 508.726 80.532 509.154 81.0248C509.583 81.5176 510.062 81.9402 510.592 82.2926C511.132 82.6407 511.738 82.8877 512.408 83.0335L511.836 85.2479C511.086 85.0937 510.387 84.8046 509.741 84.3807C509.102 83.9413 508.52 83.3972 507.994 82.7486C507.469 82.0999 506.996 81.3866 506.575 80.6086C506.166 79.8265 505.804 79.0141 505.488 78.1715L504.545 75.6606ZM511.986 71.3096L514.127 70.5062L519.985 86.1108L517.845 86.9143L511.986 71.3096ZM508.913 72.7517L511.003 71.9673L516.507 86.6282L514.417 87.4127L508.913 72.7517ZM522.583 74.1378L524.841 73.2901L525.967 76.2897L523.709 77.1374L522.583 74.1378ZM527.2 72.4044L529.442 71.563L530.568 74.5626L528.327 75.404L527.2 72.4044ZM519.542 77.0483L533.664 71.7469L534.328 73.5163L520.206 78.8177L519.542 77.0483ZM527.55 77.0223C529.246 76.3854 530.662 76.1293 531.799 76.2539C532.942 76.363 533.68 76.8614 534.013 77.7489C534.342 78.6252 534.112 79.4806 533.323 80.3151C532.55 81.1567 531.315 81.8959 529.618 82.5327C527.922 83.1696 526.506 83.4257 525.369 83.3011C524.237 83.1878 523.507 82.6929 523.178 81.8167C522.845 80.9291 523.067 80.0702 523.845 79.2399C524.618 78.3983 525.853 77.6591 527.55 77.0223ZM528.182 78.7074C527.138 79.0996 526.385 79.4847 525.924 79.8627C525.46 80.2295 525.297 80.5982 525.436 80.9689C525.575 81.3397 525.942 81.5158 526.538 81.4973C527.129 81.4676 527.947 81.2567 528.992 80.8644C530.048 80.468 530.803 80.0885 531.256 79.726C531.717 79.348 531.878 78.9737 531.738 78.6029C531.599 78.2322 531.234 78.0617 530.643 78.0914C530.059 78.1056 529.238 78.311 528.182 78.7074ZM522.786 68.8898L524.774 68.1433L524.913 68.5141C525.09 68.9859 525.175 69.4669 525.167 69.9571C525.158 70.4473 525.055 70.941 524.857 71.4382C524.667 71.9201 524.379 72.3998 523.994 72.8775C523.605 73.3439 523.121 73.7949 522.541 74.2305C521.961 74.6661 521.287 75.0729 520.519 75.451L519.08 73.9726C519.744 73.6592 520.315 73.3359 520.792 73.0029C521.281 72.6656 521.68 72.3298 521.99 71.9955C522.312 71.6569 522.554 71.3288 522.717 71.0113C522.887 70.6784 522.987 70.3652 523.018 70.0716C523.044 69.7668 523.013 69.4965 522.925 69.2606L522.786 68.8898ZM523.881 68.4786L525.853 67.7385L525.992 68.1092C526.085 68.3563 526.239 68.5803 526.455 68.7811C526.672 68.9818 526.948 69.1538 527.284 69.2969C527.626 69.4246 528.03 69.5101 528.495 69.5535C528.96 69.5969 529.482 69.5869 530.06 69.5235C530.65 69.4558 531.298 69.3215 532.005 69.1204L531.894 71.1808C531.055 71.4058 530.275 71.5452 529.551 71.5988C528.839 71.6482 528.183 71.6253 527.584 71.53C526.984 71.4347 526.446 71.2649 525.97 71.0207C525.505 70.7723 525.108 70.4662 524.779 70.1026C524.45 69.739 524.197 69.3212 524.02 68.8494L523.881 68.4786ZM518.246 69.652L529.806 65.3122L530.47 67.0816L518.91 71.4214L518.246 69.652ZM544.002 59.2907L546.142 58.4873L552 74.092L549.86 74.8954L544.002 59.2907ZM544.188 66.0849L546.783 65.1107L547.46 66.9138L544.865 67.8881L544.188 66.0849ZM540.615 60.8699L542.688 60.0918L548.173 74.7022L546.1 75.4803L540.615 60.8699ZM537.03 73.598L538.108 73.1931C538.76 72.9485 539.375 72.7109 539.955 72.4804C540.531 72.2386 541.095 71.9821 541.647 71.7108C542.206 71.4241 542.77 71.1163 543.338 70.7875L544.207 72.5379C543.62 72.8864 543.041 73.2061 542.471 73.4971C541.901 73.788 541.317 74.0586 540.719 74.3088C540.116 74.5478 539.478 74.7938 538.804 75.0468L537.725 75.4517L537.03 73.598ZM533.866 65.1722L539.613 63.0149L540.29 64.8181L536.751 66.1466L539.572 73.6624L537.365 74.4912L533.866 65.1722ZM558.887 53.722L561.128 52.8806L564.81 62.6883L562.569 63.5297L558.887 53.722ZM561.846 57.1486L564.593 56.1175L565.276 57.9374L562.529 58.9686L561.846 57.1486ZM559.656 64.8348C560.757 64.4215 561.743 64.1796 562.613 64.109C563.495 64.0343 564.228 64.1246 564.811 64.38C565.405 64.6312 565.812 65.0489 566.031 65.6331C566.25 66.2173 566.219 66.7995 565.937 67.3796C565.67 67.9668 565.18 68.5224 564.467 69.0466C563.765 69.5665 562.863 70.0331 561.762 70.4464C560.673 70.8555 559.687 71.0974 558.805 71.1722C557.934 71.2427 557.199 71.1468 556.601 70.8844C556.018 70.6289 555.617 70.2091 555.398 69.6249C555.178 69.0408 555.204 68.4607 555.475 67.8848C555.757 67.3046 556.249 66.7546 556.951 66.2346C557.664 65.7105 558.566 65.2439 559.656 64.8348ZM560.295 66.5368C559.295 66.9122 558.565 67.2888 558.104 67.6668C557.655 68.0406 557.5 68.4128 557.639 68.7836C557.782 69.1655 558.148 69.355 558.737 69.352C559.332 69.3335 560.13 69.1366 561.13 68.7612C562.141 68.3817 562.871 68.005 563.32 67.6312C563.765 67.2463 563.916 66.8628 563.773 66.4808C563.634 66.1101 563.272 65.9318 562.688 65.9461C562.103 65.9603 561.306 66.1572 560.295 66.5368ZM554.474 61.9926L556.716 61.1512L557.614 63.5441L555.373 64.3855L554.474 61.9926ZM552.386 66.6218L551.488 64.9978C552.387 64.6604 553.362 64.2879 554.414 63.8802C555.473 63.4571 556.542 63.0108 557.622 62.5413C558.709 62.0564 559.736 61.549 560.704 61.0191L561.448 62.4894C560.463 63.0768 559.438 63.6221 558.37 64.1253C557.303 64.6285 556.251 65.0874 555.215 65.5021C554.19 65.9126 553.247 66.2858 552.386 66.6218ZM553.581 56.233C554.345 55.9463 555.062 55.8245 555.732 55.8678C556.409 55.8957 557 56.071 557.506 56.3939C558.012 56.7167 558.374 57.1702 558.594 57.7544C558.817 58.3499 558.845 58.9355 558.676 59.5114C558.504 60.0761 558.174 60.5973 557.687 61.075C557.207 61.5372 556.584 61.9117 555.821 62.1985C555.057 62.4853 554.336 62.6148 553.659 62.5869C552.978 62.5479 552.387 62.3725 551.885 62.0609C551.379 61.738 551.015 61.2789 550.791 60.6835C550.572 60.0993 550.546 59.5192 550.715 58.9433C550.883 58.3674 551.213 57.8463 551.704 57.3798C552.192 56.9021 552.817 56.5198 553.581 56.233ZM554.195 57.8677C553.655 58.0701 553.262 58.3525 553.013 58.715C552.76 59.0662 552.716 59.4609 552.881 59.899C552.99 60.1911 553.158 60.4165 553.385 60.5751C553.618 60.7183 553.888 60.7898 554.196 60.7897C554.515 60.7854 554.854 60.7157 555.213 60.5808C555.573 60.4458 555.868 60.2772 556.1 60.0748C556.332 59.8725 556.483 59.6428 556.553 59.3858C556.63 59.1133 556.614 58.831 556.504 58.5389C556.339 58.1007 556.047 57.8326 555.625 57.7344C555.211 57.6208 554.734 57.6652 554.195 57.8677Z" fill="#222729"/>
<path opacity="0.5" d="M2.7913 153.484L5.34982 154.401L4.70586 156.198L2.14734 155.28L2.7913 153.484ZM-0.0330907 150.215L1.64435 150.816L0.623728 153.663C0.307822 154.544 -0.0661617 155.392 -0.498222 156.206C-0.914937 157.012 -1.40017 157.743 -1.95392 158.399C-2.49233 159.047 -3.08913 159.592 -3.74432 160.033C-4.38822 160.477 -5.0953 160.778 -5.86558 160.936L-6.59183 158.801C-5.90149 158.654 -5.26953 158.402 -4.69597 158.047C-4.11112 157.696 -3.59073 157.258 -3.13482 156.733C-2.6789 156.208 -2.28063 155.63 -1.94001 155C-1.5881 154.374 -1.29267 153.728 -1.05371 153.062L-0.0330907 150.215ZM0.475224 150.397L2.15266 150.999L1.13204 153.845C0.905238 154.478 0.721592 155.132 0.581104 155.809C0.455963 156.478 0.389753 157.142 0.382475 157.803C0.390542 158.456 0.488233 159.09 0.675548 159.705C0.866913 160.309 1.16527 160.881 1.57063 161.422L-0.296803 162.684C-0.769078 162.081 -1.10889 161.411 -1.31623 160.674C-1.50823 159.929 -1.59685 159.145 -1.58211 158.322C-1.56736 157.499 -1.47067 156.66 -1.29202 155.806C-1.09803 154.945 -0.849152 154.091 -0.545396 153.244L0.475224 150.397ZM1.5459 156.958L4.10442 157.875L3.46046 159.671L0.901942 158.754L1.5459 156.958ZM9.04951 151.923L11.2014 152.694L5.57581 168.384L3.42395 167.613L9.04951 151.923ZM5.77294 151.035L7.87398 151.788L2.58863 166.529L0.487592 165.776L5.77294 151.035ZM17.7397 161.387L19.9933 162.195L18.9848 165.008L16.7313 164.2L17.7397 161.387ZM11.112 161.152L25.311 166.243L24.6731 168.022L10.4742 162.931L11.112 161.152ZM17.2299 166.329C18.9356 166.94 20.1814 167.661 20.9674 168.491C21.7688 169.314 22.0094 170.172 21.6895 171.064C21.3736 171.945 20.6449 172.449 19.5033 172.575C18.369 172.716 16.949 172.481 15.2433 171.87C13.5377 171.258 12.2918 170.537 11.5058 169.707C10.7158 168.889 10.4787 168.039 10.7946 167.158C11.1146 166.265 11.8397 165.754 12.9699 165.624C14.1042 165.482 15.5242 165.717 17.2299 166.329ZM16.6224 168.023C15.5719 167.647 14.7488 167.454 14.1531 167.444C13.5614 167.423 13.1987 167.599 13.0651 167.972C12.9314 168.344 13.0977 168.716 13.5638 169.087C14.0339 169.447 14.7943 169.815 15.8448 170.192C16.9066 170.573 17.7277 170.772 18.308 170.788C18.9037 170.798 19.2684 170.617 19.4021 170.244C19.5357 169.871 19.3675 169.505 18.8973 169.145C18.4425 168.778 17.6842 168.404 16.6224 168.023ZM18.8324 157.113L20.8317 157.83L20.6981 158.203C20.528 158.677 20.2813 159.099 19.9579 159.467C19.6346 159.836 19.2366 160.145 18.7641 160.397C18.3069 160.641 17.7772 160.82 17.1749 160.936C16.5725 161.051 15.9094 161.088 15.1854 161.045C14.4654 160.991 13.6902 160.859 12.8599 160.651L12.7123 158.609C13.4216 158.8 14.066 158.922 14.6455 158.977C15.2403 159.025 15.7642 159.021 16.2171 158.967C16.6813 158.917 17.0782 158.823 17.4077 158.687C17.7526 158.542 18.0317 158.368 18.245 158.164C18.4584 157.961 18.6096 157.734 18.6987 157.486L18.8324 157.113ZM19.9337 157.508L21.9161 158.219L21.7825 158.591C21.6934 158.84 21.6644 159.116 21.6955 159.421C21.7306 159.714 21.832 160.018 21.9995 160.333C22.1783 160.652 22.4309 160.978 22.7574 161.312C23.0839 161.646 23.4863 161.981 23.9646 162.319C24.4582 162.649 25.0394 162.965 25.7082 163.269L24.2969 164.752C23.512 164.381 22.8243 163.988 22.234 163.572C21.659 163.149 21.1736 162.707 20.7778 162.247C20.3861 161.775 20.0856 161.298 19.8763 160.815C19.6824 160.324 19.5777 159.834 19.5621 159.344C19.5506 158.843 19.63 158.355 19.8001 157.881L19.9337 157.508ZM14.8771 154.758L26.5006 158.925L25.8627 160.705L14.2393 156.537L14.8771 154.758ZM41.2401 163.464L43.392 164.236L37.7664 179.926L35.6146 179.154L41.2401 163.464ZM36.9872 168.766L39.5966 169.702L38.9465 171.515L36.3372 170.579L36.9872 168.766ZM37.6355 162.478L39.7196 163.225L34.4525 177.916L32.3684 177.168L37.6355 162.478ZM26.6685 169.866L27.7529 170.255C28.4081 170.49 29.0314 170.707 29.6228 170.906C30.2183 171.094 30.8142 171.263 31.4106 171.413C32.0222 171.556 32.6513 171.686 33.2977 171.803L32.828 173.7C32.1549 173.586 31.5069 173.456 30.8839 173.309C30.2609 173.162 29.6404 172.99 29.0223 172.794C28.4083 172.587 27.7624 172.362 27.0847 172.119L26.0003 171.73L26.6685 169.866ZM29.7061 161.394L35.4839 163.466L34.8339 165.279L31.2757 164.003L28.5662 171.56L26.3465 170.764L29.7061 161.394ZM56.1941 168.845L58.4476 169.653L54.9119 179.515L52.6584 178.707L56.1941 168.845ZM56.2345 173.373L58.9963 174.363L58.3402 176.193L55.5784 175.202L56.2345 173.373ZM49.5925 177.818C50.6995 178.215 51.6079 178.668 52.3176 179.177C53.0386 179.691 53.5388 180.233 53.8182 180.805C54.1088 181.381 54.1489 181.963 53.9383 182.55C53.7277 183.137 53.3272 183.561 52.7368 183.821C52.1536 184.096 51.4206 184.203 50.5376 184.142C49.6658 184.084 48.6765 183.857 47.5695 183.46C46.4738 183.067 45.5654 182.614 44.8444 182.1C44.1347 181.591 43.6365 181.043 43.3499 180.456C43.0705 179.884 43.0361 179.304 43.2467 178.717C43.4573 178.129 43.8522 177.704 44.4313 177.44C45.0217 177.18 45.7527 177.078 46.6244 177.136C47.5074 177.198 48.4968 177.425 49.5925 177.818ZM48.9789 179.529C47.9736 179.169 47.1731 178.983 46.5774 178.974C45.9929 178.968 45.6339 179.152 45.5003 179.525C45.3626 179.909 45.5191 180.29 45.9698 180.668C46.4359 181.039 47.1717 181.405 48.177 181.766C49.1936 182.13 49.9942 182.315 50.5786 182.321C51.167 182.315 51.5301 182.12 51.6678 181.736C51.8015 181.363 51.6409 180.993 51.1861 180.626C50.7313 180.259 49.9955 179.893 48.9789 179.529ZM47.4792 172.299L49.7328 173.107L48.8701 175.513L46.6166 174.705L47.4792 172.299ZM42.8924 174.478L43.2579 172.659C44.1616 172.983 45.1463 173.33 46.2122 173.699C47.2934 174.061 48.3976 174.413 49.5249 174.753C50.6675 175.086 51.7791 175.364 52.8596 175.585L52.4762 177.188C51.3456 176.999 50.2105 176.752 49.0711 176.445C47.9317 176.139 46.8327 175.808 45.7741 175.454C44.7268 175.104 43.7662 174.779 42.8924 174.478ZM50.5233 167.328C51.2915 167.604 51.917 167.975 52.3999 168.441C52.8982 168.9 53.2358 169.416 53.4127 169.99C53.5895 170.563 53.5727 171.143 53.3621 171.731C53.1474 172.329 52.7896 172.794 52.2888 173.124C51.7919 173.443 51.2032 173.627 50.5227 173.677C49.8575 173.719 49.1409 173.602 48.3727 173.326C47.6046 173.051 46.9714 172.684 46.4731 172.225C45.9789 171.754 45.6413 171.238 45.4604 170.676C45.2835 170.103 45.3024 169.517 45.5171 168.918C45.7277 168.331 46.0834 167.872 46.5843 167.541C47.0852 167.211 47.6739 167.027 48.3503 166.989C49.0309 166.94 49.7552 167.053 50.5233 167.328ZM49.934 168.972C49.3918 168.777 48.9088 168.738 48.4849 168.854C48.065 168.958 47.7761 169.231 47.6181 169.671C47.5128 169.965 47.4951 170.245 47.565 170.513C47.6502 170.773 47.8102 171.002 48.0448 171.201C48.2908 171.404 48.5945 171.57 48.956 171.7C49.3174 171.829 49.6519 171.892 49.9595 171.888C50.267 171.883 50.5307 171.806 50.7504 171.655C50.9855 171.497 51.1557 171.271 51.261 170.977C51.419 170.537 51.369 170.143 51.1111 169.795C50.8686 169.441 50.4763 169.166 49.934 168.972Z" fill="#222729"/>
<path opacity="0.5" d="M416.984 176.504L419.657 176.007L420.005 177.883L417.333 178.379L416.984 176.504ZM412.897 175.103L414.649 174.777L415.202 177.75C415.373 178.671 415.477 179.591 415.514 180.512C415.561 181.419 415.51 182.295 415.362 183.14C415.224 183.971 414.983 184.742 414.639 185.453C414.307 186.162 413.848 186.778 413.262 187.302L411.559 185.824C412.081 185.349 412.5 184.813 412.816 184.218C413.144 183.619 413.373 182.979 413.502 182.296C413.632 181.613 413.685 180.913 413.662 180.197C413.65 179.479 413.58 178.772 413.45 178.076L412.897 175.103ZM413.428 175.004L415.18 174.679L415.733 177.652C415.856 178.312 416.027 178.97 416.247 179.625C416.476 180.266 416.753 180.873 417.08 181.447C417.416 182.007 417.82 182.506 418.291 182.943C418.761 183.368 419.307 183.712 419.93 183.975L418.952 186.006C418.241 185.723 417.61 185.316 417.059 184.783C416.518 184.237 416.047 183.605 415.644 182.886C415.242 182.167 414.903 181.394 414.627 180.567C414.361 179.725 414.146 178.862 413.981 177.977L413.428 175.004ZM417.659 180.131L420.331 179.635L420.68 181.51L418.008 182.007L417.659 180.131ZM421.603 172.001L423.851 171.584L426.898 187.971L424.65 188.389L421.603 172.001ZM418.326 172.885L420.52 172.477L423.383 187.874L421.188 188.282L418.326 172.885ZM433.879 175.798L436.232 175.36L436.778 178.298L434.425 178.735L433.879 175.798ZM428.035 178.934L442.865 176.177L443.211 178.035L428.381 180.793L428.035 178.934ZM435.928 180.323C437.71 179.992 439.149 179.987 440.246 180.308C441.353 180.614 441.993 181.234 442.166 182.166C442.337 183.086 441.962 183.888 441.039 184.572C440.131 185.266 438.786 185.779 437.004 186.11C435.223 186.441 433.783 186.446 432.686 186.125C431.591 185.816 430.958 185.202 430.787 184.282C430.614 183.35 430.983 182.543 431.893 181.861C432.802 181.167 434.147 180.654 435.928 180.323ZM436.257 182.093C435.16 182.297 434.352 182.545 433.832 182.837C433.311 183.117 433.086 183.451 433.159 183.841C433.231 184.23 433.562 184.467 434.152 184.553C434.739 184.627 435.581 184.562 436.679 184.358C437.788 184.152 438.597 183.91 439.107 183.632C439.626 183.34 439.85 182.999 439.777 182.61C439.705 182.221 439.375 181.989 438.788 181.915C438.21 181.827 437.366 181.887 436.257 182.093ZM432.669 171.555L434.757 171.167L434.829 171.556C434.921 172.052 434.921 172.54 434.827 173.021C434.733 173.503 434.546 173.971 434.264 174.426C433.992 174.867 433.625 175.289 433.163 175.693C432.701 176.096 432.147 176.461 431.5 176.789C430.851 177.105 430.115 177.382 429.292 177.621L428.136 175.931C428.845 175.739 429.463 175.52 429.992 175.275C430.529 175.017 430.98 174.75 431.344 174.475C431.72 174.197 432.015 173.916 432.231 173.632C432.456 173.334 432.61 173.043 432.691 172.759C432.773 172.476 432.789 172.204 432.741 171.945L432.669 171.555ZM433.819 171.341L435.889 170.956L435.962 171.346C436.01 171.605 436.124 171.859 436.305 172.106C436.483 172.341 436.723 172.553 437.027 172.741C437.342 172.926 437.725 173.081 438.175 173.204C438.625 173.328 439.142 173.415 439.725 173.466C440.317 173.502 440.979 173.483 441.71 173.408L441.238 175.4C440.373 175.475 439.581 175.482 438.862 175.42C438.152 175.345 437.51 175.208 436.936 175.009C436.36 174.799 435.86 174.538 435.436 174.226C435.021 173.901 434.684 173.53 434.423 173.115C434.161 172.688 433.983 172.226 433.891 171.731L433.819 171.341ZM428.066 171.514L440.206 169.257L440.551 171.115L428.411 173.372L428.066 171.514ZM455.224 165.75L457.472 165.333L460.519 181.72L458.271 182.138L455.224 165.75ZM454.222 172.473L456.947 171.966L457.3 173.86L454.574 174.366L454.222 172.473ZM451.614 166.715L453.79 166.31L456.643 181.653L454.466 182.058L451.614 166.715ZM445.863 178.622L446.996 178.412C447.68 178.285 448.328 178.158 448.939 178.032C449.548 177.894 450.148 177.74 450.739 177.569C451.339 177.385 451.948 177.18 452.566 176.955L453.116 178.83C452.477 179.071 451.851 179.285 451.239 179.472C450.627 179.659 450.005 179.824 449.372 179.966C448.737 180.096 448.066 180.227 447.358 180.358L446.225 180.569L445.863 178.622ZM444.218 169.774L450.253 168.652L450.605 170.546L446.889 171.237L448.356 179.129L446.038 179.56L444.218 169.774ZM470.852 162.863L473.206 162.425L475.121 172.725L472.767 173.162L470.852 162.863ZM473.168 166.753L476.053 166.217L476.408 168.128L473.524 168.664L473.168 166.753ZM469.671 173.94C470.827 173.725 471.84 173.658 472.71 173.741C473.592 173.821 474.297 174.038 474.826 174.391C475.368 174.742 475.695 175.224 475.809 175.837C475.924 176.451 475.791 177.019 475.412 177.541C475.047 178.072 474.468 178.534 473.674 178.926C472.892 179.315 471.923 179.618 470.767 179.833C469.622 180.045 468.609 180.112 467.728 180.031C466.858 179.949 466.152 179.726 465.608 179.364C465.079 179.01 464.757 178.527 464.643 177.914C464.529 177.3 464.655 176.733 465.023 176.214C465.401 175.692 465.982 175.236 466.764 174.846C467.558 174.455 468.527 174.152 469.671 173.94ZM470.003 175.727C468.953 175.922 468.169 176.166 467.649 176.458C467.142 176.747 466.924 177.087 466.997 177.476C467.071 177.877 467.398 178.128 467.978 178.227C468.568 178.313 469.388 178.258 470.438 178.063C471.5 177.865 472.284 177.622 472.792 177.332C473.297 177.031 473.513 176.679 473.438 176.278C473.366 175.889 473.041 175.65 472.463 175.563C471.885 175.475 471.065 175.529 470.003 175.727ZM465.065 170.237L467.418 169.8L467.886 172.312L465.532 172.75L465.065 170.237ZM462.201 174.431L461.6 172.676C462.544 172.5 463.569 172.303 464.676 172.085C465.792 171.853 466.923 171.6 468.068 171.326C469.223 171.039 470.323 170.718 471.368 170.365L471.845 171.943C470.773 172.349 469.668 172.707 468.529 173.017C467.391 173.326 466.275 173.595 465.182 173.822C464.101 174.048 463.107 174.251 462.201 174.431ZM465.19 164.41C465.992 164.261 466.719 164.266 467.371 164.426C468.033 164.571 468.585 164.847 469.026 165.253C469.468 165.659 469.746 166.169 469.86 166.782C469.976 167.408 469.901 167.989 469.635 168.527C469.367 169.053 468.951 169.509 468.388 169.894C467.835 170.265 467.157 170.526 466.354 170.675C465.552 170.824 464.82 170.826 464.158 170.68C463.495 170.523 462.943 170.247 462.503 169.853C462.062 169.447 461.783 168.931 461.666 168.306C461.552 167.692 461.628 167.117 461.895 166.579C462.161 166.041 462.577 165.586 463.142 165.212C463.705 164.827 464.387 164.559 465.19 164.41ZM465.509 166.127C464.943 166.232 464.505 166.441 464.198 166.755C463.888 167.057 463.775 167.438 463.861 167.898C463.918 168.205 464.044 168.456 464.239 168.651C464.444 168.833 464.697 168.951 465 169.004C465.315 169.056 465.661 169.046 466.039 168.976C466.416 168.906 466.737 168.791 467 168.632C467.263 168.474 467.452 168.274 467.566 168.033C467.689 167.778 467.723 167.497 467.666 167.19C467.58 166.73 467.338 166.415 466.941 166.245C466.552 166.061 466.075 166.021 465.509 166.127Z" fill="#222729"/>
<path opacity="0.5" d="M97.155 222.177L99.1773 220.282L100.507 221.7L98.4846 223.596L97.155 222.177ZM91.7243 221.569L93.0506 220.326L94.9587 222.361C95.6071 223.053 96.195 223.776 96.7225 224.532C97.2499 225.288 97.6791 226.061 98.0101 226.853C98.3499 227.637 98.5663 228.429 98.6593 229.23C98.7529 230.014 98.694 230.785 98.4828 231.542L96.2012 231.214C96.402 230.516 96.471 229.826 96.408 229.145C96.3451 228.463 96.1884 227.796 95.9378 227.143C95.6872 226.49 95.3633 225.872 94.9661 225.29C94.5694 224.692 94.1249 224.13 93.6324 223.605L91.7243 221.569ZM92.1051 221.212L93.4051 219.993L95.2394 221.95C95.7073 222.449 96.206 222.911 96.7356 223.336C97.274 223.752 97.8357 224.105 98.4206 224.396C99.0055 224.686 99.6101 224.893 100.234 225.015C100.867 225.129 101.521 225.124 102.196 225.002L102.518 227.266C101.766 227.412 101.01 227.413 100.251 227.269C99.4918 227.109 98.7452 226.83 98.011 226.433C97.2767 226.036 96.5662 225.559 95.8796 225.002C95.2017 224.436 94.5549 223.825 93.9394 223.169L92.1051 221.212ZM97.3062 214.338L98.9739 212.774L110.374 224.934L108.706 226.498L97.3062 214.338ZM95.022 216.849L96.6504 215.323L107.361 226.747L105.732 228.274L95.022 216.849ZM109.692 210.918L111.438 209.281L113.482 211.461L111.735 213.098L109.692 210.918ZM106.461 216.71L117.466 206.394L118.758 207.772L107.754 218.089L106.461 216.71ZM113.858 213.625C115.18 212.386 116.389 211.606 117.486 211.284C118.584 210.946 119.457 211.123 120.105 211.815C120.745 212.497 120.861 213.376 120.453 214.449C120.062 215.523 119.205 216.68 117.883 217.919C116.561 219.158 115.352 219.939 114.255 220.26C113.166 220.59 112.301 220.413 111.661 219.73C111.013 219.039 110.888 218.16 111.288 217.095C111.679 216.021 112.536 214.864 113.858 213.625ZM115.089 214.938C114.275 215.701 113.727 216.346 113.447 216.872C113.159 217.389 113.15 217.792 113.421 218.081C113.692 218.37 114.099 218.391 114.641 218.146C115.176 217.891 115.85 217.382 116.664 216.619C117.487 215.848 118.039 215.207 118.318 214.699C118.598 214.173 118.603 213.765 118.332 213.477C118.061 213.188 117.659 213.17 117.124 213.425C116.59 213.662 115.912 214.167 115.089 214.938ZM106.386 207.997L107.935 206.545L108.206 206.833C108.551 207.201 108.814 207.613 108.994 208.069C109.175 208.524 109.269 209.02 109.277 209.555C109.286 210.073 109.204 210.627 109.033 211.215C108.861 211.804 108.591 212.411 108.222 213.036C107.846 213.652 107.376 214.282 106.812 214.926L104.927 214.126C105.42 213.582 105.823 213.064 106.136 212.574C106.45 212.066 106.686 211.598 106.844 211.17C107.011 210.734 107.108 210.338 107.137 209.983C107.166 209.61 107.138 209.282 107.054 208.999C106.97 208.716 106.837 208.479 106.657 208.286L106.386 207.997ZM107.239 207.197L108.776 205.757L109.047 206.046C109.227 206.238 109.46 206.39 109.745 206.501C110.022 206.603 110.339 206.652 110.695 206.646C111.061 206.633 111.467 206.557 111.913 206.418C112.359 206.28 112.841 206.075 113.359 205.803C113.877 205.514 114.424 205.141 114.999 204.684L115.676 206.616C114.988 207.146 114.324 207.578 113.685 207.914C113.047 208.233 112.432 208.464 111.842 208.606C111.243 208.74 110.681 208.79 110.156 208.756C109.631 208.705 109.148 208.574 108.704 208.365C108.253 208.147 107.855 207.854 107.51 207.486L107.239 207.197ZM102.486 210.444L111.495 201.999L112.788 203.377L103.779 211.823L102.486 210.444ZM115.144 200.182L119.792 195.824L121.134 197.255L118.258 199.951L123.798 205.86L122.025 207.522L115.144 200.182ZM121.361 206.813L122.214 206.013C122.731 205.529 123.217 205.065 123.673 204.621C124.12 204.169 124.547 203.711 124.952 203.249C125.366 202.778 125.777 202.278 126.185 201.748L127.683 203.082C127.266 203.638 126.846 204.155 126.423 204.633C126 205.112 125.556 205.586 125.091 206.055C124.626 206.524 124.131 207.005 123.605 207.497L122.752 208.297L121.361 206.813ZM119.774 193.62L121.39 192.106L132.1 203.53L130.485 205.045L119.774 193.62ZM123.136 195.206L125.762 192.744L127.154 194.227L124.527 196.69L123.136 195.206ZM122.307 190.9L123.962 189.349L135.374 201.522L133.719 203.073L122.307 190.9ZM126.646 198.897L129.286 196.423L130.677 197.907L128.037 200.381L126.646 198.897ZM133.861 180.093L135.608 178.456L142.773 186.099L141.026 187.736L133.861 180.093ZM137.909 182.121L140.05 180.115L141.379 181.533L139.239 183.539L137.909 182.121ZM138.837 190.059C139.695 189.255 140.513 188.653 141.29 188.254C142.075 187.846 142.786 187.648 143.423 187.66C144.068 187.664 144.604 187.894 145.031 188.349C145.457 188.804 145.652 189.354 145.614 189.998C145.593 190.642 145.354 191.344 144.897 192.101C144.448 192.851 143.795 193.628 142.937 194.432C142.088 195.228 141.27 195.83 140.484 196.238C139.707 196.637 138.992 196.831 138.339 196.818C137.703 196.806 137.171 196.572 136.744 196.117C136.318 195.662 136.119 195.116 136.148 194.481C136.185 193.837 136.429 193.14 136.877 192.39C137.335 191.632 137.988 190.855 138.837 190.059ZM140.081 191.386C139.302 192.116 138.772 192.744 138.492 193.27C138.22 193.788 138.22 194.191 138.491 194.48C138.77 194.777 139.181 194.812 139.723 194.583C140.266 194.338 140.927 193.849 141.706 193.119C142.494 192.38 143.023 191.752 143.295 191.235C143.558 190.708 143.55 190.296 143.271 189.999C143 189.71 142.598 189.684 142.064 189.921C141.53 190.159 140.869 190.647 140.081 191.386ZM132.962 189.424L134.708 187.787L136.456 189.651L134.71 191.289L132.962 189.424ZM132.811 194.5L131.358 193.345C132.058 192.689 132.816 191.97 133.631 191.19C134.446 190.393 135.262 189.57 136.079 188.722C136.896 187.857 137.65 186.994 138.34 186.134L139.592 187.206C138.908 188.126 138.17 189.023 137.378 189.898C136.586 190.772 135.791 191.599 134.993 192.38C134.204 193.153 133.476 193.859 132.811 194.5ZM129.926 184.449C130.521 183.891 131.136 183.503 131.772 183.286C132.408 183.052 133.021 182.986 133.612 183.09C134.203 183.194 134.712 183.474 135.138 183.929C135.573 184.393 135.824 184.923 135.889 185.52C135.947 186.107 135.842 186.715 135.576 187.343C135.31 187.955 134.879 188.539 134.284 189.097C133.689 189.655 133.073 190.052 132.437 190.286C131.793 190.511 131.18 190.576 130.597 190.481C130.006 190.377 129.493 190.093 129.058 189.629C128.632 189.174 128.385 188.648 128.32 188.052C128.254 187.455 128.359 186.847 128.633 186.228C128.9 185.6 129.331 185.007 129.926 184.449ZM131.12 185.722C130.7 186.116 130.445 186.528 130.354 186.958C130.256 187.38 130.367 187.761 130.687 188.103C130.9 188.33 131.142 188.474 131.411 188.533C131.682 188.576 131.959 188.538 132.243 188.42C132.535 188.294 132.822 188.099 133.102 187.837C133.382 187.574 133.59 187.305 133.727 187.029C133.863 186.753 133.914 186.483 133.88 186.219C133.847 185.938 133.723 185.683 133.51 185.456C133.19 185.114 132.816 184.979 132.39 185.05C131.963 185.104 131.54 185.328 131.12 185.722Z" fill="#222729"/>
<path opacity="0.5" d="M515.155 222.508L517.177 220.612L518.507 222.03L516.485 223.926L515.155 222.508ZM509.724 221.899L511.051 220.656L512.959 222.691C513.607 223.383 514.195 224.107 514.722 224.862C515.25 225.618 515.679 226.392 516.01 227.183C516.35 227.967 516.566 228.759 516.659 229.56C516.753 230.344 516.694 231.115 516.483 231.872L514.201 231.544C514.402 230.846 514.471 230.156 514.408 229.475C514.345 228.793 514.188 228.126 513.938 227.473C513.687 226.82 513.363 226.202 512.966 225.621C512.569 225.022 512.125 224.46 511.632 223.935L509.724 221.899ZM510.105 221.542L511.405 220.324L513.239 222.28C513.707 222.779 514.206 223.241 514.736 223.666C515.274 224.082 515.836 224.435 516.421 224.726C517.005 225.017 517.61 225.223 518.234 225.345C518.867 225.459 519.521 225.454 520.196 225.332L520.518 227.596C519.766 227.742 519.01 227.743 518.251 227.599C517.492 227.439 516.745 227.16 516.011 226.763C515.277 226.366 514.566 225.889 513.88 225.332C513.202 224.766 512.555 224.156 511.939 223.499L510.105 221.542ZM515.306 214.668L516.974 213.104L528.374 225.265L526.706 226.828L515.306 214.668ZM513.022 217.179L514.65 215.653L525.361 227.078L523.732 228.604L513.022 217.179ZM527.692 211.248L529.438 209.611L531.482 211.791L529.735 213.428L527.692 211.248ZM524.461 217.04L535.466 206.724L536.758 208.103L525.754 218.419L524.461 217.04ZM531.858 213.955C533.18 212.716 534.389 211.936 535.486 211.614C536.584 211.276 537.457 211.453 538.105 212.145C538.745 212.828 538.861 213.706 538.453 214.779C538.062 215.853 537.205 217.01 535.883 218.249C534.561 219.489 533.352 220.269 532.255 220.59C531.166 220.92 530.301 220.743 529.661 220.06C529.013 219.369 528.888 218.49 529.288 217.425C529.679 216.351 530.536 215.194 531.858 213.955ZM533.089 215.268C532.275 216.032 531.727 216.676 531.447 217.202C531.159 217.719 531.15 218.122 531.421 218.411C531.692 218.7 532.099 218.721 532.641 218.476C533.176 218.221 533.85 217.712 534.664 216.949C535.487 216.178 536.039 215.538 536.318 215.029C536.598 214.503 536.603 214.096 536.332 213.807C536.061 213.518 535.659 213.5 535.124 213.755C534.59 213.992 533.912 214.497 533.089 215.268ZM524.386 208.327L525.935 206.875L526.206 207.163C526.551 207.531 526.814 207.943 526.994 208.399C527.175 208.854 527.269 209.35 527.277 209.885C527.286 210.403 527.204 210.957 527.033 211.545C526.861 212.134 526.591 212.741 526.222 213.366C525.846 213.982 525.376 214.612 524.812 215.256L522.927 214.456C523.42 213.912 523.823 213.394 524.136 212.904C524.45 212.396 524.686 211.928 524.844 211.5C525.011 211.064 525.108 210.668 525.137 210.313C525.166 209.94 525.138 209.612 525.054 209.329C524.97 209.047 524.837 208.809 524.657 208.616L524.386 208.327ZM525.239 207.527L526.776 206.087L527.047 206.376C527.227 206.568 527.46 206.72 527.745 206.831C528.022 206.933 528.339 206.982 528.695 206.976C529.061 206.963 529.467 206.887 529.913 206.748C530.359 206.61 530.841 206.405 531.359 206.133C531.877 205.844 532.424 205.471 532.999 205.014L533.676 206.946C532.988 207.476 532.324 207.909 531.685 208.244C531.047 208.563 530.432 208.794 529.842 208.936C529.243 209.07 528.681 209.12 528.156 209.086C527.631 209.035 527.148 208.905 526.704 208.695C526.253 208.477 525.855 208.184 525.51 207.816L525.239 207.527ZM520.486 210.774L529.495 202.329L530.788 203.707L521.779 212.153L520.486 210.774ZM533.144 200.512L537.792 196.154L539.134 197.585L536.258 200.281L541.798 206.19L540.025 207.852L533.144 200.512ZM539.361 207.143L540.214 206.343C540.731 205.859 541.217 205.395 541.673 204.951C542.12 204.499 542.547 204.041 542.952 203.579C543.366 203.108 543.777 202.608 544.185 202.078L545.683 203.412C545.266 203.968 544.846 204.485 544.423 204.964C544 205.442 543.556 205.916 543.091 206.385C542.626 206.854 542.131 207.335 541.605 207.827L540.752 208.627L539.361 207.143ZM537.774 193.95L539.39 192.436L550.1 203.861L548.485 205.375L537.774 193.95ZM541.136 195.536L543.762 193.074L545.154 194.558L542.527 197.02L541.136 195.536ZM540.307 191.23L541.962 189.679L553.374 201.852L551.719 203.403L540.307 191.23ZM544.646 199.227L547.286 196.753L548.677 198.237L546.037 200.711L544.646 199.227ZM551.861 180.423L553.608 178.786L560.773 186.429L559.026 188.066L551.861 180.423ZM555.909 182.451L558.05 180.445L559.379 181.863L557.239 183.87L555.909 182.451ZM556.837 190.389C557.695 189.585 558.513 188.983 559.29 188.584C560.075 188.176 560.786 187.978 561.423 187.99C562.068 187.994 562.604 188.224 563.031 188.679C563.457 189.134 563.652 189.684 563.614 190.328C563.593 190.972 563.354 191.674 562.897 192.431C562.448 193.181 561.795 193.958 560.937 194.762C560.088 195.558 559.27 196.16 558.484 196.568C557.707 196.967 556.992 197.161 556.339 197.148C555.703 197.136 555.171 196.902 554.744 196.447C554.318 195.992 554.119 195.446 554.148 194.811C554.185 194.167 554.429 193.47 554.877 192.72C555.335 191.962 555.988 191.185 556.837 190.389ZM558.081 191.716C557.302 192.446 556.772 193.074 556.492 193.6C556.22 194.118 556.22 194.521 556.491 194.81C556.77 195.107 557.181 195.142 557.723 194.913C558.266 194.668 558.927 194.18 559.706 193.449C560.494 192.71 561.023 192.082 561.295 191.565C561.558 191.038 561.55 190.626 561.271 190.329C561 190.04 560.598 190.014 560.064 190.252C559.53 190.489 558.869 190.977 558.081 191.716ZM550.962 189.754L552.708 188.117L554.456 189.981L552.71 191.619L550.962 189.754ZM550.811 194.83L549.358 193.675C550.058 193.019 550.816 192.3 551.631 191.52C552.446 190.723 553.262 189.9 554.079 189.052C554.896 188.187 555.65 187.324 556.34 186.464L557.592 187.536C556.908 188.456 556.17 189.353 555.378 190.228C554.586 191.102 553.791 191.93 552.993 192.71C552.204 193.483 551.476 194.19 550.811 194.83ZM547.926 184.779C548.521 184.221 549.136 183.833 549.772 183.616C550.408 183.382 551.021 183.317 551.612 183.42C552.203 183.524 552.712 183.804 553.138 184.259C553.573 184.723 553.824 185.253 553.889 185.85C553.947 186.438 553.842 187.045 553.576 187.674C553.31 188.285 552.879 188.869 552.284 189.427C551.689 189.985 551.073 190.382 550.437 190.616C549.793 190.841 549.18 190.906 548.597 190.811C548.006 190.707 547.493 190.423 547.058 189.959C546.632 189.504 546.385 188.978 546.32 188.382C546.254 187.785 546.359 187.177 546.633 186.558C546.9 185.93 547.331 185.337 547.926 184.779ZM549.12 186.053C548.7 186.446 548.445 186.858 548.354 187.289C548.256 187.71 548.367 188.091 548.687 188.433C548.9 188.66 549.142 188.804 549.411 188.864C549.682 188.906 549.959 188.868 550.243 188.75C550.535 188.624 550.822 188.429 551.102 188.167C551.382 187.904 551.59 187.635 551.727 187.359C551.863 187.083 551.914 186.813 551.88 186.549C551.847 186.268 551.723 186.013 551.51 185.786C551.19 185.444 550.816 185.309 550.39 185.38C549.963 185.435 549.54 185.659 549.12 186.053Z" fill="#222729"/>
</g>
<defs>
<clipPath id="clip0_80_9193">
<rect width="595" height="225.33" rx="24" fill="white"/>
</clipPath>
</defs>
</svg>
